<mxfile host="app.diagrams.net" agent="Mozilla/5.0 (Windows NT 10.0; Win64; x64; rv:137.0) Gecko/20100101 Firefox/137.0" version="26.2.9">
  <diagram name="PÃ¡gina-1" id="B5-qJ9bAqX54GzkhsIn6">
    <mxGraphModel dx="1840" dy="861" grid="1" gridSize="10" guides="1" tooltips="1" connect="1" arrows="1" fold="1" page="1" pageScale="1" pageWidth="1169" pageHeight="827" math="0" shadow="0">
      <root>
        <mxCell id="0" />
        <mxCell id="1" parent="0" />
        <mxCell id="32aNe6h-Z7KqoS8JLjo7-135" value="Jefe de Copoelec" style="shape=umlActor;verticalLabelPosition=bottom;verticalAlign=top;html=1;outlineConnect=0;" vertex="1" parent="1">
          <mxGeometry x="20" y="200" width="150" height="350" as="geometry" />
        </mxCell>
        <mxCell id="32aNe6h-Z7KqoS8JLjo7-136" value="Centrales de Energia" style="rounded=0;whiteSpace=wrap;html=1;fillColor=light-dark(#FFFFFF,#FF4242);" vertex="1" parent="1">
          <mxGeometry x="480" y="160" width="320" height="120" as="geometry" />
        </mxCell>
        <mxCell id="32aNe6h-Z7KqoS8JLjo7-137" value="" style="shape=image;verticalLabelPosition=bottom;labelBackgroundColor=default;verticalAlign=top;aspect=fixed;imageAspect=0;image=data:image/webp,UklGRryDAABXRUJQVlA4WAoAAAA4AAAAFAIAWQEASUNDUKgBAAAAAAGobGNtcwIQAABtbnRyUkdCIFhZWiAH3AABABkAAwApADlhY3NwQVBQTAAAAAAAAAAAAAAAAAAAAAAAAAAAAAAAAAAA9tYAAQAAAADTLWxjbXMAAAAAAAAAAAAAAAAAAAAAAAAAAAAAAAAAAAAAAAAAAAAAAAAAAAAAAAAAAAAAAAlkZXNjAAAA8AAAAF9jcHJ0AAABTAAAAAx3dHB0AAABWAAAABRyWFlaAAABbAAAABRnWFlaAAABgAAAABRiWFlaAAABlAAAABRyVFJDAAABDAAAAEBnVFJDAAABDAAAAEBiVFJDAAABDAAAAEBkZXNjAAAAAAAAAAVjMmNpAAAAAAAAAAAAAAAAY3VydgAAAAAAAAAaAAAAywHJA2MFkghrC/YQPxVRGzQh8SmQMhg7kkYFUXdd7WtwegWJsZp8rGm/fdPD6TD//3RleHQAAAAAQ0MwAFhZWiAAAAAAAAD21gABAAAAANMtWFlaIAAAAAAAAG+iAAA49QAAA5BYWVogAAAAAAAAYpkAALeFAAAY2lhZWiAAAAAAAAAkoAAAD4QAALbPQUxQSOYVAAABGUVtIzma8jz+hLcfgoj+TwBW1XCilgPZABcI8DesSIivsDDnKGjbRkrCn/X9hyAiJoDRUllXAWpTh6Vjj4GT/4HBeXNy2giF22rbXuxlA7URcuqMEGu9DcxhHjMYxBp06Zb5Q8QEKHLbSEnnNMsMT/D9/5+a6rZt/SrQH+tuw338h+NqjGsf42qMK3cfVz5Gd3dp3tCGhBAIcQEiFZLf60WqAo+FytCIcCjZSt1oE1u4WCQEyfMDfG3btjS2rW3nBSFAIASIe6ViVWnubbi7u7u76+JYGmP6/AFzyd19Lrq7u7u7Fde2BUJZLpJr2BYRsGhbCSpdilDBsgjNmjf/UjwT+vvP33++WAgoq8cA4QoWWuAO1QgC1uf+iM/sYte/+NQnrj9+PUaUQm0xMRllJECsvVFpw6+sihtHXs0PohPawCz34tC+9YnPfvKpp288dpPmIIX6YiwvVMWnvMpYa7FB2Dqc9+udelwpWaaJDcqypHmDQHlF3ASyppwO5RkDJQSxjmLr/cV0cjCKAzfX4bKQWC12KcypttT7vVb/SudYgPUPuxlUGq3ZlaPlsFHOHEXCGyqnBCRg2l3E7Vpi1PEGvaOjiZrVONYpo49y3J/NZlcGsZ2x3fTRjHRuQoKMhoiEFEou55edo9Z8zQ+rpmHN+nB2ZTXtxlY2LNFGXOJTbO+MKBRQJlQli+7xSXfq8ayalbgEvdXVdT8VZnU3jiiNOLgcQq4nJBIAUOvq/PJ45JQMtBZhneZ0eXRj2nRz4tK5wtKFx6oSVr6YnLbbfSuuMaGKCNmBrB135sdXF8MoLy6lDkTYIkJg0RKT9U4Hx63+3IVakfbuCA7lxni6mE6HdTt1Gb7wfupuJDfFyJjkRr+67HT6TtnJtdqA7XUPj48PO5GNzbKz9lOby3bkDENTHbZ6w7mVcPYAFHtepTm8Np/O20EpZyB7nri00b1q5AxLXeOqP7qc2DE3iwm2KFF24NKaH6+Wo05snH0gK6uIg6JhjC7l/tiK+H1mKyrOM1V3dPP+1VmM3Afd8+bs4AgrhYKrbWex3sLzc3bvYRNwFFqs21pevXpzHNFlx6UN33uRsCHTc2fjsSyr9jJj9JIYn81FUpaSDd3Owc3j+chPr3pC5x+3CI5WuF03gBH1ndlEUeSFY3MTGWHUEsW4ZEcHq6P5QS9wNgNTJiwVFSGH467VQB4uTXk2708Ma1mWkAEKHc/vDEbL2cE43pwqp83jKjTC8j+QgKl05SiyMposFqu8zHQoXli7NVksl4NhZJ7n1UnBmZYrQFhjZZE3VLWebBh2CsDqgyhMPK8zX90+GkYWtmAkexiXX8DtmkisJutAUyeyoo6DWHzmMcpekNpwsbq6GMc5M6NbHJZ2+plScssQZJaqvzebt8yIvzdZUHhmdHi0ujbt+zm6pwWm3VC0eyaLNaUjdy7MFQNFFI25yj68df/qpOtulm3o7iRCKJnJCCEsdPzSyWQccVtBFPq1W8vbd65NnGwZ4Vw91S6KVlyOE9qXpx90Bhu228NPiZf37lw5iCn3UZewQwnLL/VS7fKdDy40lnDAr6lR99aDB1d7G5Ep21HtZEJghQtW2j966d1hdpgJaQ5G9x5790otLTt7vTt7N/J7b77SLpxz10pA8xkf+OTCP2O9u12Vv2d9+u5zrw2QGLRLJfPaq9//+tt+ZvSSP5jdF4p4wgtP95Ew7UrJuvWS1zwhRJJQfle1l2S88kOvGAFs7MR6rr/k+TctJJTXW+0jAoNDOE/+wDtuAAntNmmdf/ulL7pKOEV/j8kwThjHr3vbwzRo7TCJMXv+i6a0+XEO9h5CgsEJui97812AaGfdc6PnPX8K5rXERPvS5wtEOEH8vNcud5MRMYKnvvpaKqW72aeI1xknaLzgVQMkxg661x7x4usZKT27+9bHbxlh8PJnWTtmH5Sg/Zg7RvZcZnP2LYFSYf6s67tkIcC4eb+Bk7SePUxChmU7+4dPr+2OK8dYPu8u0iHtfkdMRoLmM+7ujKX88IlRegoZ+59ACW48ub4Dng+I0XvcQeYj8L1PAmUvo/+Eqztgwp1uXLMznfGe+Hd6nO5z+cBGwaN6/RAJ0SlWe2C14YNOsVcZHlaRZ78/ZiZYLor7ciK0e+baKlPnnqnKGFwzCvtqfnYMxp7J8p4TaqtqYSuBCfspMa0zm24hI8924fdQrWZYzdYi2G+JET5Rsbu7BJ4ECLn176lVPFKtAgjKXIhfUQh44BGo0qqrzD7Ee28S4DoFUplGCi6AMNx9mNCvTtDpiiAIc7U1qMh6OgGBXhDmBmAVWsdow7agMBcC/QCw+owTvgsS38d+XLkEF1kFbuZ35jxInL+ap0Cqjnb2IaBgF0BQlYojkfDXcQPEusEC25Ir7vPiiyWtWGOeQ6nKplXv12sJQLg/kJPhW5W2sZ97kacIN+mtMWBltf6PdAkLvniTGvkLUFUkhBf/xPcg3iTovVpVDaHfa20XMf8gwDMqYDX97n6VQQv5QrBh/6GaSAh//D6Ie0WEv34AeSWlWd95heWLehP8uooaJOaXZxKiyDevvAN5BZX3v5JIIO6FQCP5WSxVEOfX3wUAkV/l8Mwz1dMQ+NYzBUfcy7aJfpSS6rne8qVuwRH5Lzn85ZkKmiHGTez1RGv+pFsFVMkqBNF+LyTNFxYOY+u6mYD3fBEvGDAVzJmoH2LPJ1rrHj8BRdNHDEeZu2S/pxPj+aWkYLBo7f0SiPDY68Vy8RmLCoP2/mTSeAqKhewVMpp7viLjSQ4XynloTUGkgeS9gpkimfRTo30f62T4SHChaDaQbhWQfEKZi0RzamRkBQjX5yiQmFAdQQng4eOK5MaodqEESnCnSKJCrATQmj8YF0iyGwGkgwWTZWGAMfBBKihg4sqtAkmOPQZpoeARTmGgPAXroeC4DSqKjzj6UAMRhisUBUVdRazsrorjruiBSAsC44bJBdH+Qze1UwMtW6BiQMdiRSQxHKIYqDSCGuoCExqLgrgpgrWlJhStZUEMIRqtDPSguCyhEBA2oAsa10BFECm7MUgTSXQ6xRAnu05GUw+KUb8YvKBDDNZEgdcthMYbYwCkCUOjBy6A1te6gDIMO4XQX3ghtEFdAwUAP1qndYGOVwR+EPnIaCqiOPZRANTy1MFqQSFESV8bK6qhfEdgDM0EqkgTvDrkk6GPurhUKwA4HbAuGBhRAbS9PQVpIxvNAggPsxFIF5tCYMDcZaiDauIZG0sw1JGol+U/jE/UkUtAIB2E8EAdYELVAQlHvwuQOpjvSb8dMKuB9KHo+eIxsRj6INsVP7k+SC31gYr0fjMYKUQmlHwIp2ioEKAA0G4CpBBIN8PY14glU0U6DhxWSbIq/Y3LVCWWLBwEbw4mjTBf+OvZzhCkkqRHwksa0Am5Jdno+yCVwCsLZ2aikYXhWqJbTQuopJxQKYN23Oj6CKSSFRVb9u/xNVWixIDjikYvAnTCXEc2quuESsiUXdHIYaUsti37G8DU8rMNgL0uUUqBbYlGAK2Q5Yq+EeIUn3X4DtBXC2OInh+pVVJznVBFMmIHYKWwqmTUPRApxZBE/x6fw2rJ9iT3HF1oBRD9w0ruAGohwdkEv6EWMKKy4NjYVgwLPZBYtAClWBICX25iHIJYKWl4nuD/t28neklUxH51xcYRWC8JLxSbjg5AemFuXe7vpIwVY8lmQ+x8Zr8BvWwYUkGY+0ysF7Et9+dcwVAMtWyhcJf7kKX0rylkWvZAmmFRTapmB1ANpL4k7dVAmtlU60L7j4mrGE0i+F2p3wBqxpKRlAYy3cKZKEYpU0/PEAhCtQ/lUF9mVa0GQKrZdEKZ87chdFOAukQw+jZIN4mgL7OvdKGcJfl/kb1l3WDtKP6vyLpG0A0IscipCjOCctakJBCEIIR2SOY/qq1G+sFQ4j92CGxoJ4l+LLCtYVU5ta6tGm2JczLqmR4hVOUpMuISwLpZ2RpKZGayZsrJOhAYLTwoiA4Cee5f0xB6obg+xFQRYnkfklcUBEI0EtfQSlNBK1fkVeVGmfRnGwyjCCoy9MX1k1UVoSvMkBGXQQpCW5xhvQT9KBLCHkgYyqyeDQOVrixFpj5YQ1WVmsK8wxtloR6xT7Kc32+BVISeLaykrqK6CA1hn4e2m9ARhcKmNhseiFSEuiyMzbXmZxvAdKgiSyL4DVHZlaGS6mKjB5Y0mu6DNMTSqkT9aHscIX/5bMEvg3cCEENFWS1HUtAY+kpihLgiyfHbFkNJVAlEzZlBRyDAlfSxv9OFmsiPBTm+19MSCJVYEgv0xKxIEKIwY6mjqppgSX9XQKwltEyIoZoDPVFsCYqFJTUlgMiRg16J9cRCQR8C1qEoBD6kkFFVUw4BtZqc6ZGGmsAEPxDj9uRrilly5jdtTdWFUl0MKraiwKacF+nVUFNAS87segOaotgU88xdBpGiUJKC5lqF9YTIAQl55WIyFMV8MTOcoaZkwKtJmZ6LoCrypXiJqyoQvFBI8+ymqlbYUt7EWT70pMlgMS9dSusc1hNjeELQjKErkvIupBGtE5pCTUh3Uq/qakVgCmG2qiRG1ZLRuq7BusqulER0KOUh1AUZnwu3dQWCLQEEN1SWJhwZLKhCWWSXZXwtEkBZm7IlhRGrCpaMROxri5VksFppLesKtoxsXeUQYEpgjFBX4DVsCaMMCpQ1Z0YouSK6xgDaIkPE/IilMJgyZubA2oIlYRQddUGfhUg8dgXS1cJGRcKfpT3dOlFX0gFvfXr5mLWeshgkzKQ+ZqitNCAAXH5cKQF/lgGEyT2oi7EE3D3cOz/iOIMPrQS312lSF6yt3zbuQWNE2z438vdv+gNDX3mJ+TXv2HL83nP+0Ei0tfCJ+bVv2fKfEv6tx/+Oytg3vH6bfcU4wf/98P/uJiBBIEgOVTkxv+V1yfaOkhLYT39MucC97TZUusMJIRUzvu01/4/tpdvPuYEE4EL2vX0Wcgdcq1CVz5dDTEWJb3jJ/9J2WjGmL3uCkb1ARWmLJS7E/tpLRdhk2SbNG7nku7ewSZrbX0QiRIIGIfs+z8V5DaLC3Eti/uZXb2VoJYbz+GdEODGIQcWDElOUyJGd5//zdJMnaZJQSpM0oNc26zgO11lzsw6jMNwAbTreTbwmSU1o5Nebjet4XWrcunHTcz2v4tq27ZZd2yyVTMuxTmsy82asKzK/ZELtyXWwsX3rrectcELEadMKJxQha+9iXVbTjAYxDWkc0kBzNpSmWYo5Fja83sw4FdM7dhOd49i2ZdlupWJVa8E6FVQrfsW1zJKZf0+knJDb/OLwSwL6L7iX3rTbNbCNnngfnLnriQrDBQEBdtohiyj1gsS3VqFhJb4RUQma1xr7pOTZ7bkLwXIHO+NfhJZKjue5FT8IwtQ5vVrguhXHyDta3mxUQYQtZnCCqy88QkLb5N53ntBGkubKPafIOMmePrhJomgVmYFhRO48pPZyE4b5HrbbMYi7YfrzHXW54jh+GNZqUVyvh9Vq4Nk5bpnkHzdlzp7cTIbz9GdHSIxtaUT8pHtZ1ybJAQm5rVoy9jQNqePrjm3YxjYWrWiS7+0+eAf87645J4FPa5FZtuxaVAtbzbge15u+WzFy2s6neCUJTDLRCYYvfmLqPluxrh4ZpE1hueMULE9XkcZrzzQX6sy3wmUURinu4YD3jYXO2d6SG9Sq9VG30axHtcBz8k5cQkKrS1tLCe4+93grjNzH39iwkjVO4XdofrA0itae41qOpdmO563S3b6AFZJKnnoWTM+rtprNVqvbDIPQtcyc0U5edRCyl2xEMZ/ybA+XexcYCY4fXQOTFFuCu30QUt/xLMvWZ5brBjFNsrKNTgolESqonnJm8k5MybHDuB63Bp12sxnYVs5YR1K8IjAZJ+g+6/4lu5L12EwuQALiEhYKSJwmcbTyTXOuOZZpe6t1uUHvGR+83+aLnOcgwChF9bjXG/Sb7YbnlgBkD4okZGQblxo9uX55AmP06E560Nt7ihDYaarAsbJxFATGQptruu37UVJuREbBqr/BJv/UmXYQN1rDQbvbaVfcPNWs6fYbeU+5fUkXkRiHx9lD5y2sr+QPSmQxcEzn6tzUbXcd7fJBPDx3X+WfS6ceNiaT6ajX8U5VBW2zkODKA/OSGjYYbOMDMBJk/6DsUAaX1lSeqlPdcCL+dMKePnjQuiu3hsPpYt6Pg40peyJsb7CirKtXZj4uA40KsGUSQkHB7VpiB0MDezZVR8rc9pLb6e+Aduf5rcOj6cG4HaTHkqS6tKW7oWzmwL/4w7UGJYB4m+ISI8tHpbWtKbOxPDfcJd/fHrKHVjTnpIetzvJ4Oe1nPIUTEG3lbghYL1VAxe4lqIJpW4ISNxBONvKmsjIcTRf+HZqiDnawcnrz5dHRsJXbi22VaU7z/vmfBKr//z/wVoxadmDRnWuj7kjVTcrafo/cWTSgFLZmq9Vs3LJzRr6bh7ZFTfx5sA0M/pdt6af4aSo0p72x0psu17ivrIiIEmdVo/54euVo0K5sTs3T1mQQwOY/OTgX4U8zh0iX2VMVa+YMWL5cqMNOXzYsuH1ZsYlV/enhcjZpBJvjmzW2Y+jLqPUEph/7u/Qk8GXFJSw5IbpaTDvtrmL4vGl3yIoXFNXW4dVr03HLPeWVDTFdppSYLYOGquKvfCfAl9VPFSGIiUt2+0q9GJir/cKS2EHDweDoymTQqZ0+vgFdjmA0SiGq4V/+RybTxXdUsC0Sk0lPle5pV9fp3cEKUn4DrzVbzI7H7SjnXd5ldWMMo5KLQFvN777/vwy++J5KYgKTMTxqdcZWzJoOyrHiyMKmahQOry4n875nbD4ur9cL7Mc2jzUmdBDf86mL8iLOHB1ymctaGbc+vJo4JVFWcJ9dz5lHGQwaR6tRrx4gz/TCVJkpMQodBQO+5BsvYruhm3DBy2zl+Lx76VLGTjuwggw1Ks3DxeBw1ah5OP2VDZ9zxb8FBgyUfOAnDeZz6jJxSoZpINH75x/2FZN/TgnF+30XhA0nKTfCyepwNBiGlPW1nL6C+Uyuw4wTmO/CWsfL7zpKiM4zdilJXWK5c3bUm68ZLCAK/ZtQckyd9rg/W41bcYTNaJWq0lkEGISPfBnH5AfWAOicY1lfOz4672mbfQ5shF4UG9ff8oPuZNQdTLueRznul+cc2VCT/NynvwucjG950f+ZZ5HKhrEadU8+7M8y1gBYO96flDeAKTV79eHxKG63vXLptFdq//13f/zbP/ajf3+RreFb33GQ8T7OjJ0JlgcrVz4/bnUMLjKV8eoIdDNKWHZtFNUqQfn/nAalI99/+49//cd//sO//HfASC50ufqRR3ZsK6degpiFSbrJJt2zY0WHfXh1pjucx98yjzGoYXDQqPpVr+pGS6/xgLsOjJjSjRbvc2xTi0Q38gHOxpbMWOMSfIc2D9R1NzThg1FJZKrlNW8gy5zbNbIe/q+J+n//y99/Ps8UAlZQOCA+awAAECgBnQEqFQJaAT45HItEIiGhISUVufBABwlN0t23fsOr+7xZnzlQdhaf2d7MP/5c8DwOi7Oa8EB+kr7ANQrWb2N/2P9T/HvwQZp9X/fv8V+yX91/7P+p+ano/wd84fe/8D/i/3p/1/5Of1ezr7z/f+Wtyl/ov7t/j/+b/kv///9Pwr/uf+1/jvcp/W/8T/xPcB/Vv/Tf2f9x/779L/9H/1v9h7nP6r/kf99/jv9H8Av5F/O/8t/f/3Z/f/7yv9r/3P8Z7if7n/mP+d/n/6j8gH82/rX/M9dj2Ff7X/xP/L7gX8m/r//J9rD/l/+T/Xf7j/6fRr/cv9Z/4f9V+//0Kf0b+2f8r86v939AH/g/+X/k9wD/nf/H3I/4B+7ntz8dPwP/YD1ie7f5p/rXuAe1XyB2+/m/A37a/pvy9+R39l/zv8j4p/t38r/wP8p7Av5P/N/8L+XPpI/4va22f/5/+F9gX2D+k/5b+6fvP/gvlqmNfReoF+WfGp/wPUH/T3rGf53/3+9v3l/tH/H/9v+2+Br+i/uv+ePfk9KkjbVxNq83e8mribV5u95NXE2rzd7yauH+4sq3c/KSBnB22CdB0TCuc519q8WQq7yauJtXm73jj11hqHE91VxbXOfi9jCVguAMP+HB3h+QCv5tW53Vj8m7FnjIr0vOASsy0MLLBfCquLvJq4m1d8YQCxTBSoDBkrTYemFWEZdOY7l5bN1eTFXzqccV91uZEJBJMm1+OMnaNv3i8mHkHDmepa0miSahlwSNlfgOnQDZ/z1N28sWy9I8ZGg95NS4gf9Vh0oP8jydsPoeAmiZ03898PE0Yi1aoIMMqKRY1yqfjUc96vpgdJEYkNHN0gqrpIU5AjcIHsZFG6CAQsyFgKSeg95NTLzEflL6rVgA35lm4n3iaxA6I7zwTRGlnGekjLtRPK+7u/OpqrXE5l34zcFNpUD3NK96LvhMfNcSMzkENxb3S8518klfJjO4fm1eaN9BHzG73l+1RO4qFTgSRDACoTHYIh0wD2qZl5r3DvhTzBpzWQwH2uDFK98AKH8Uu5o2TtDXk8uzg8fT2TVqkdJMXJ2iwlnFg58BAbf8vdalWq7ot1HOkFsrtAlIrFK69Pu490pcg78dhkMQ8ErwiyXCVHmbcoiM2LbpK8htxuPtP3Ti93rCKdidy0cMQHDUrXkLxPNYmA7PaLMYjKpe9Ubo36NMthH3s6ACrwJEliDx3e+R1LFz9KkZjMjeodS5G5TavNKSF7xgQ91qW0Fx8Gzm6RATxz2bT6OHCt5vlXqfiSSxJqC3H65WKikNZopodJ50SI9xX8OICLB7aKK7WX7xf31dW1HwFQKdk1SZokRYsymuTV0Mv1xccyPTL/fCo7CNtwr+56SjHWFn8DsO91rFGr7a2ayVOD08+sCdlCXopoceZ27R+g2XUsi5XcAZ1rpDanG+DAE2AdswKHqnfjpeSsaSiXDNRHIiei7j7NrHC+uDw3WiqFq6iqSKPYbktzQ7jxIFGfYO5l8ghcIWfeyH+t/+vz+29hNitE6rWfR9tCdQY7zrE+VOUtsl1aWTiDBW+K/Bl6YGHyfL58dGmGve9dw0Fjq1HdDN3VAVSNpNBGbm0mxkZtBJ2MeHhLd7GygAkHAaQcH4Do1MawHNdXfeEB7CfqReID+CzhrgnEx9iALeBcWflYhvY981vB7xhEwEjeHIHHmcgqa4ID4q2iYleQw99kr580OEeS0Ly/eSG6p8C7Z/cCcsjnbG5O75JoIz7JM7WPcArWWgFZDNwohFxbSzrJwEpTHo6cuLlI5F7cFV/gucNrmpe8FLog2DZmDblt7KtVrXuVoTB/D4J4WHIML//THYJ8pG6Fgl69MqdR2mmmz55KmUbt/BinHUBzeu4Feu1b+LwBAV5PZMjtvT5xsXGohocF8mHT9qYX6E0ijEPnmN9Cz9uF8leL/NcZQkDXFvBalo/+l830iORYTL91Knm3veGg6j2jgxxL58nvxTEMDsq09yad39sxbYbH2/bvNgHjyhaEWD6TDAYfRcXPgGeCkC7ybhh5l6IDhLRXtQF+HUkB7aLiX21/WEHMtXUANpdKBaZpS3I3rBC/hweqfBiS/YKj3ItC/ONB53x4csfdIrHFUCTfRLQeF5xoaqZ8LGl1ttdmtkQO/Nqv2lnJS2rtMWXxG7Kieh+CS7uSEI//9Etndk7mLfmP5FpU1J0Gl5uwh1RlI+Wr9mHlUCqOJHhbxKlgF5laiS8vwLA44iVrA1aYqB05GSuuDQOxsMCzUIp+vjiZwyrCyJJmXoNNSajjFKO5K+tRV3E0Iw8anuJiOAe+evHj0IVuwHxiNsm0Q+XL1m5kEh+5gi4VRZnr4fn0LCmRtmnYDdQOyC6nlB4YkUUzoZwvWnp1rUcxdiEBaUL4dEygx1H/XM1FXQPtM2prf94KNfIOSKF8Biwmfa9y1VecKyBjK6oZyhi8xci6ZNBCbRjASYjLQqygDOFJNdpbcfdjDM0I9K2K1oTfce9XVKUC8CcCvj2U+3/CJovrkBM6p6HNsKJwn4vDnhXjoFU3Rb95iPMi8ldp0+FS8mkA2/kxAs0U0dqmQUAFvAd/9YuupomKHTGv4YAjefBmXvsE4G0wu49UcS8yGJa2lH0/lDw6EtOkhn8mKlORrUyFycbhfgeZL2M2yp1icyHZI2oENcMq+FS2USntcIv0X2mWjnr+IvcYDrZpakc8P8+06U1tU2jaca4e737MKgfHI/35yYeF7UcuVLgTKe7iRlWN/WmwNVxzdvoWs0suOPXRYR9LHlCFvHyfzXOms8NVUDvf9M08+C8VVdeyw7W1nH8VMVcAs4kR8Wy9JP4U38EK/gTi5LK1qJGiRO7Cpd8LZRXFRMHK/mNPb3u4iT1h/nonIWSCHVX11aaf34cmwwx4d3bPKOwe5MVq17/6Fs87xN6NVigf/9/JNKbIJ8PoRk/O7ltTeU6MWmmC2YapZf/U3dmZ4H2cRav1BCmtCNepQkVFOk0EtqNe1jEeXpC7ZNQO35YA42oPEslQ/jCU30dcr7zeuQw8AgUrjx+gJRV0AzoT7BWKHOC6p3PYqkrnpScv9r5bOPM9pLNB1v158RulJfLz4jdKS+XBC0j5oQRPb/1OXxyuIyflUzVribV5u95NXE2rzd7yauJtXeAAD+/UpsAAAAAAAAABlcNB+8b/6Sq//6LvMw2xyyTS2FpKH7yBxwJudxpljfEldobU7EHRo0DN+Ajknfe6kLNCn1i0QXGoYwG2EChJsdZ0M+4pxuTKnquW5dp62AS89RZn7+JHk0Mb0zdKNrr0P92w5IgppaitDSnj9ytIn/YXAriejVMKXZxcR6F3si4wtkmNLUv4rvlHKpS/SBcP3dqmQb3mrieuoqmPKN0M0QrDBfOrAsOR6QxLDvaPZL0KXzul8Peehg6H300bIl4gJhCQY0hT75H828A/EqoUM9g+iZsELrZAuv0Rn5sTWwDTMugiNyZo7y2fmCCKcoudBRPkuneilw+ChEMHnARY9Tz89YwupQRVqzNvBBpn9AP8bRR7H5c74t67RV7OJiJWUcGcSEY6sS1VIHM/r8oLYfZmbzFIcYXmvZJhs1vER/pm+V5K4CfiHrPVn7CkfhBSC2du4Rry0/s6mMP7ooHsC0Jhf1XVZTICmX2k64OYu/YBuyYky47kmoBRAO7IAWXt/7XG6nwZLCcVnxuTiOZkek8b93MdHtFIZeOK8uP1l7vIJ7CYV5KzSWTkonxVgAAAAK5JKpTKEf4iMCCn65DygYBdkQ9y9OIfTksclky5xxnoK+/0+blccdQxy6w4DjjUtUcKA5ekdWm84jPFluzBkaO1ro5vp0+U1dScC0blPVYK7VgQTIaUUY34adzzX/8CO2ETvSuQPAiFRSbU+xtkiuNVRofhtlcR4W2st4EsoAt/F/yNi1Qri0zbAckgJXnrkzdIvCJCK2KP7WJGUX6h2j/zSVMjroAS2Pr19Xl9ycVT+05GVdoSSv7PsCyCIvX5Z2hleVbtAkbAA2FNsiPhUutQk2oKorF3DNjIY1KGxQKoadIKSdDYcV3D7xxFLUj+CFOCdY9PnvfqNBUiE+uUDYXMiNEGnHCjOt/reO0PVFSuiY/67uBgSiLe67ij6m1C4hQCCdmnvexuZD+VMrAgMR6vvnmG1kIR/hB9DkAUy+lwws8cU70MRlBrEoU9y2QNOR1+KGZBmOf2OFIPXjLvo6fJpN67YYmv7WHIxS4gDKiR94VuuxFiV2MqQaUXSqUASzgAYw1MBM76PHBk7Eq0SZeCN80hobqLR6j4TF2HUJYX1J28Ss8Xh5vDGYEy/QquYMkFg8sZuiIjNeDjr6tA07IVPnp169k9/YAkTrxdJJOc+pdWb3AGW6tFF998HMs2vYRe0TPZdpEm3gIVoe8HKvagi+/PxgYQ05GVqySeoodV/p5s9aH98rSFl+MY1MR1D4bVt6i4i9+cnHrPixxI0xlFbuw7nKKBzdSJw0vVlh56fgjvGJu03tvQUN9nbV0YqvF7p+ijfXf83b/BOcC9TVIQpMwAAQCOC6pXdlmQLUAfK2v4oOxJSHjcoFD4V/5M7vL+z7AKUeYf6jsiQt/V5ccZyZWuucXNN+QS/5c+0/aSyARAijlgZd+RNhA+byzekuXJsNJPcXRWUISnpDRcEY0S18IVR6hltnVTW93fHCEV/BxU37pBoW5yS3njKG4pUeK6AmRAyUbpwwabk0k6H84VHPbJ65mmkZyqGAwc1ULz6aMXuIilsawHyeYTHoVIQb9MStmUPVwdK6+RNbC6xqZoo5/BWBD9IG/5mgKiBRkF8YtntryMGief8QS8CYsLIL+Bwg+0L8VeD94RhoTpzGjek2gfGsSkVVHZ7gKB01SyNt/GV4qK/1ylIJd2WjfWDdtjMVk2W7FGc+SJnV95BANQb0hjIUE5X4GPX9zJXc8zl0lyjcFGVFR6+zT+yVp9L5oVDBVN4oh27UIFx2maSl0P4MOHNY8RBFmsaUeNS+n/xNQqYkHktXmQTiprHBzZMSeIZjLKvjvYZBMado+5e6WGUBvZzLOSUvlv20fw+r/u4NXKiEWHYZwMq5p5qOdqjqLPeVqcMnVbqDeUkD1CqU47bSx+lN28JcYm85JYogZupA1ZOIuZ7HvqnDO44+k+niN21EF91r1k927oR04YpH4Ps4/lvizj70gnwWfEflaXxdPa/t2xB3Vk87mWybzkob2nO9kztEk9gyEIPgcXPG01QoRp0+Rh1a0maDi54Ta32XeEy/iC0JRXWd5CO6KQSNEJOc/ZRn7QxwktjiMS0JxmMwB05wgMVgMKgabrv+5NHc/JorRuAZz0Ufg4Sr5mz+nOufcCpuYYJPdFqDmQdpfOkno6Ia0/vp1xnTWF9qteI6qaR8GFA/bp3iWdctIZRJJ+mPrmsFlDK51mqmiqCACAbKOTGs1+SRPyLrB09048Ic7+JpOYh66yt8Cem3NkW/jckmAuiqcfocHeQ8u5TZCVvGa7gLarDrb0YGTOdXL08fdTAUry0vI3LGAAfs78Rm13D57ywDqejw1QrT9/bBEK6I8o2yjOxSUax0MoTxQ5gI0WemcdaCg1Diy008ci/a8/5vbushSbC2yBugwrxt92B18QgpoZoW5/Vb4Z/1+huFJ5jTn6xll3qWyoKXNe4LSam7t3SPnFlptmLfVl52z8P5BlRnvq9HKsOQInlZ8Kwn4jsj7ZUjFNoSgtgEXjrXahKa/701L7t8R3D1VWuF/afZNoaZAEWOYSlJl5C+Ehau1ftExsg6c/7fbMLPLrgT6IN45i6LTsZT4XKs3jhDSwB1slogDrDL4FUHmoo4/IVYNzfk+UgKop41oDQoohTb8uUOQ0kFBSgBNi2ab0SoLLMaPYNQlEclyjNHQl6IlYL03nH1fu2TnbujFfvDHU0Ca/bRIKff4dHURuwQbO2Fwdp7ilP0O29RR8lrdPO+/PKznK7KKqllMaNBIyPjEnN1SSuU/KWCApxUqAJpE6itCUFqqnwuJ/ExBilOoEmM2YXq9vgoPivVLn1bWS1sr45q94OXNyqaAGVZyKphuP3m9IQatTS06Ybm2+828KKYA7jb6ThU9dfaAq8k/cYxVZC9iP6NGuauK2YoLM+1HUKc4c3feXg8btYjl83/Qj9pbEwdyoPyeZG4AD8osuVYmWMbt81hyhMuXcIsVj6zCZap9+NTV6xufKceipu37F6ghRI95i1nWfnOOaUkosoT/BxHLbApa7shLGjU3csbbWADDyEPUQ5mpgcr4J2tyiJ7BEhYTa4PPlhS8OausaNyiGSikT8FILC5tmX2d1+d1EvqF9wkbsjOm9Ns5j5CXkiz/xoZ4v/frigzVBfJVvvtf0GUKIIDweMHCQRz7tKaLam0F5URnDS/+c+mwjo5UJfaYA6syOX1Vmg+UfuoReDYjkc4NkaX2t4ekZ57KDItYbfTatLEb1PVK4ySTYjklenanXXbFBMbIyAK7uYf9GkPDS6oA8V2oYaw5ZCeA/baPDMjJCobjOPciCpi5JwJ19Btgyna7hxswXnwNoH2304yQUVDFTS6FGhbLVt0KhFuozI6JLjkqDnU3BMo7fLNRYQoKazlqQY7lsuXo9EeIPMgyuuREkkhR81Io/TBetS4AyMBGqS87P1vg86Ga+qLJi3oat3qt8o6HyiCLkrJFLd6jBFGatcsmLn16+6LgexGK3WnPRcNZC2+Lgbqrr3uZrcK+n6uRg1/cKfKBfuKXBFtVmHGbMIaOO2gvbY/4w3qj8IqA2mTjlzLF7TJ8c3DfLWnJOrKxI8aIIYhfK4o5WJ8QTVuN426nJKfGjLXlIex6LLCgipugankmgvPfUn6GnC041yRteidDzR6X/ioBlT0hRvKO06WrvdkTIRFJEijzNu05AGYueA/LP3w6BEYNfz29/JmdQPpHu+oJZxjY0qu6kKxGsFko+xl1liJwZQMdV6jxOg4muC4magAcDucGLtki9VUSWScpkGpo+dGaHvEsOuRtEFAAEJH28CVgEdN63TssVLqY8Z4zDwboCb7OlISEl/as4sBKCKq3LNeoHGMxWLBmRruNQQX3BMNQPBykwutJPAt88hC6nQD1h0cWrEF/7jj2AU4YM3dvJgGhh6SAFP/lTCOivGO/8xnbY40K4+cSo95H1rLvsipYzgEGyFTuSW2r7ACv17qcmSglamr7TIL5jh9b70RWliFM7Mw4e+wXul4ziB4iiU25rbamTcBEzwKptq5QMb8ov9Q62JhOPgxjV+TxK45iCv14xkEk5Au8VhcZ67aZybqGG6JRnQjCEDP1rrzn/UJTZLeGJzr7yFNIpkRyPawTLjuxJ2IS6qd1Y13WB5DmrQw4zBxlyhI/55m5HJ2pGnbkosW+caJ/G1opCSs9gKb3s32dIdpeDtDDPGeP67BZOwhdbzdBL/svHJ+CSrFfotV/PsuWE4ivMQGMd6aWzwhabzPjCJNt8WJGhN5wRn0vWELNk5BjavIs6NrgUFfQnulsivXx6oG3ZA4O4kDZNNgSa61GlPp+zzKoGKU1ScZqOZBzGfOY7dEUh09nLYUw5Z6ww/A+uy6r/agCKvrTC5idrxYUiukzmFTj0Kyo+FVVrI0ieH9kBgXXdYGRI38Zin985ICjpUoNFbFsRyQGz5By1/6BnfJkcdOjRnaf2msJekrWEh2SzGrY1kakar40WDT1RjrFcyDa6v2cIrokM0UXC/cBcu7lOvGQYNN+4a9X0hsmOcNouU1uUPshxLQA/++fokWG+TOcYZq+RdOTLdpeTvWl5sTQTnEo5wdIDx4eR34r7/nT9J/e28mJn2rWGJiZNTzlW8hRR53+daDdP7lmhJqzF3lNRpTzyhc7gltsaiY+Mvj13aVxsAa40sTN0tiqdixnW/8EOAewo0GxDCdyTI6E8N7uXOqRV2PQSQbAvTvNTp2IyI8doKs31oa/NqggBvaZbNDDgTdKewTGPoOPvvLOE/9Z4iPPtw4tiPmigTHFGqIgOsLcPvLoYlK3A6+STqeBYAXWfQmDeXNMzHmEjTkIEzGa2SkWVDY67p16XuOglKcrRPS6rRbEI/UVgWWLUKnSEyT6PXWoOOUXU7UPJOmVSR2RIMeg+6FhIU+qN4bpPKYztUj/qv2ejJ1HJJWc2FKoWssOwhOVd4ll8OtUdhquBLxrG/KTtuhFFymfFchiC36FRXV+Alj+H9+Ur7rMvPOJKMJgEHhcJlU4TbPZKgbJuquR4c6mQIh/ofTeW3/rAHGxdE30pBTepe0jJbCY4+LgZmtebVY4e5FZc1K87AK1ZKSly6RmvjA1mIDZrLooT66ZgpXOfRR6mnvItN4VPX6KJG3dKKHVrTTVu1k+pBQopInF5nHXbUO70lTgAq/eFOXFwQWfXvKscBvG7euzLt5kdHVcIFTC5PsXXcaFp3Uq3ncoqJP6uTR9L3ingoPZYaRP54lL8lISzhYYwAItkF121rKSzgsIAxkCfQdHdpZUsqAawyumIQt1UsL2ZdxTYxHmZ/eslxppD0kRCEWVF0gNA8Qf11MloPRdlUiHTDKcvCSJlt43inWocWihKS8Ism0x95xqWwnqsOrjCuOoaoDD8YYB0G2UFF25WXr2dZzqLhKmZUST63SjruwfLjwSqiqkHrjr7R8iHn/psZxlq+XzBZ/x97XU4GLmcj6EUfDnmU5qjp9gKh6TsV/b3gR9BuN5qSt2RFxbUbpLYE0JEjIyIZYddUPsmLpsGNBm76s6ZtreA8SNooTuPHXkCid/xAbup0jx2PezYABXCoeRQigCFhhsjxrxGnH5aJeAJNGc7uEvQtw2KHnMC6E5Ln4Pj2psBp1Hvxgy1sFZ4TzJGIZLPNM2f4riRju3KoWpjX/YVa25opfQ6bWFsZIl8nbGEkC2TTTTi8TbrQ91p4U8Hn+lI/pNFVK4le+zM+hYbVlO0b1+8daoLKODocXR//txBTq/9keTz3sb63SZzdEluy3gx/78v0eSKyHasgA74aPxivFO3Tt6ZcgssYtlcVSCU8GNqEiTlSBZgVW17XTgfGMsigQe1vNj6MAGLJ3yFaDXYTfrKwDJBi7dL7Fn7CfNp1lwAj1j2orsBLlsLztORZPR3zuiQAZzc93lMLRLVMvu3my8fHeCljEN1aq3reK6gcnEEAzynRu75Z4FdbmrkNciHIZfX0i0BPCzKXqn8dfJMd5gCeaGU7I5EHyP8PQmmGUA7oLp2yum+1xlGJ/3qpetXPpmJfcryXdB89dXyqbsg+8OXdXwIqQSaReq+loqjTL//ppwcmLkd8UGLC8ef1LXfbZelV7/5b1S0ZttNB4qIb+87v/Ta7F9Id2i2XHEA1lRD09XolzsHbHw594donDaWyMxpx54CEW4Jr+J1WUZ45+Q+oBrY00+3sj/qyj7/SBNKvwslyvKekrNlNLl69httqNvHZwCok+EB5DdljIe02uO9HYWN0J9Fvduz8GFKy6fBv7fJ9rnyKHRYAGPkIeDC26jnLJWHtJZB6jpmds0xPVNS0GnRbJsxSa03/JQA2hsIRknAJz1SQVt+wVRKvaGeo+Ekb+qDiVxyKrdn4fEYW5W3Pg/b/gaZ1XcIFdoATUMEv9PKmQqYGYwu6aCBDc0kDzlnBo9tyBmaWfOJDy2mrYRCTkTj7Eg8i9sr2Iezy0vTNS7+8BEUeFf1kUZQKwIhAxeyHmKWwZspq7dHBK1E4UZOfS13CMM1DaAkLBMT1czOH5F6kRmX4VxHogUEyB5E7+TpGZlL0RWqft9l44Z/FZ+U/wIiOh75xUm9Z2dmmLNbnsmboFM5h5ZjbLbuU+7uBUwV0gK2stg/bthqNYizBASO12YRvmea2h/eVvgX17hEW0AdEUVTG7qQNByX/KbKj2GuIPK/ESeW9YLRrb2V2QX2JkvQxuZ2NDD2zBei5tbtPLKO0us79BraRN/TaOAdoEpSazpuFPFe5FGIOoKQjS40c5zmLUq7JWR264i3vrthhvq/c6d01OW+FmfHwgHmVVjw7vNi3nU8fGkorw6yUYf6uIgP3Kjd3BjeDrDRfxMsb2QiHsI2eMIWXuDLiqi1wmE3ZIm0EXvK7cqoaJeVS4MUKpZuqPNkEk7pvn+z6PY8sRxYTMpCq26WtPYj0UY+gDKDZHHET0ChDttTGYVYBbM8xCdqv9tTxPXx3Oab4lKgheBYmzT76FNiCZsf1E+QHzu+yKhdttfnG4TI3sJ2/M0tDM9wpvDEYzxBJLbusZo1F7zNJXEJBhwnv2YnZ1G944PO0T2dl0sLpRoqap6ZnIpXq54UwsxEqMPH2I6zwLs6Ac42jYHGzdCoWw4ktzpflOaktMaXK6hW98VYpFhH5/r4FhAtP0NeNeaCstzvjKS8PfyUcQqpzdyHeONpY50u/tcQg+eeHug9p7nBQ0Wyg9Fl5zp4w1OajJXigi1WVAj5UGhDpfzruyLZVHqmw4/ynlFqefiTMQ/iU8vmBYNp2gxt4zxuowrcyiOhbRiP30Ot00sx9HVk+WcyrqxFT7dbs3JKhYPzac5uiwm4LDGoOja+U/1p4EVCZcDPAa2LTc2rRRZ5OOYcgNlA0gIXIF7VaJiuKQGcFVyoNIGWot1V/MVsxcr2lTgEPUyGOJr3u1FVlrgjQjMBh2F0B4MgdajR8eRx5M3qn46yO5ra/VTil5JNz+Nr9ut4ipQmUpigt7QLLNhhho8rKZpuQ43Y2J3/l8vDcB/UIaxnnDvb4oSXfPhfl84/jd8iT8zpTx7Y2CT7d1VSsWiNeqICiSGPbzb2wkc5i1vOBjInPlBrmS45xkE/x/dJPtiiwQWI29cAEqb0BSVV0yH2x4XSKgE9EftV/57EFIN3jUjYyAaRSodQyU/wvYWTXsoVp0/eyNHW9bUyk/3vSD3Bx4GNcG2BdrQYkBebasyLpPjn8bJ+uf789osqmIbn6hS5BdcjBl7wC/jW6x/LKTNmvptDoJbaTDstEhlZZMW7X/fY56rKzHQkV+OY5cIoGYcGMFKFOusSakMZhP0rwXu6uL3P7dpq4f7QW+656GLGRKVzYTxJCV4NSYYsOGrNUcopayhdQ9dIp2Fv6aeq7PkYtzSHpWpywKW0CRb+ZtamogLxy1QTT+tswS+lNtR4SZYFew3/JF+Cxmyjvzd0svpvd/XVEBZmeVo7LOEgHqkWBjZG+/9ydc8VC+6fstN6zfkqzY1GQTtZJVMJ5mQSRMRnT+175savjVm0wzzDxbWSzt0+lAvf6GNtwjraYMxpn7yxecSH37FS1oqbyNBFNvu2ex/YiSPNzF1+utYNMP57Dbax41s6uSaP7gT07VPNiOQSgoHB2XhIZyVqbWc9ShgHbF9b3140Ekxb8bMr30yKa+Js2/E4IKTSAZd/KSQZHRykLD1lhG9aeJ4dXn9EP7zKNunTC0RzPE5b6HUMjGdnLP6eotqMdEoGshnG7rzuS97jU0/BK0pjq8yaQWSHVdfcC/flV7A1VYJGYhfhZlukA5DXXRtEbCn5p26tmiqppNgKSdNELPqwKQnGQ0Gdhd7Zovk/c2i3pDXAIzxSEMNw98YgUFkNKiFFkMQEF2gtqxNAY/YYFTboY9mRtDWgpqZBwNF9qHdrm0OtKV2GMY7BfGXJoAk/7uedjhk/Tuo6N2czObDJNoe3B3EcnxfCCZX7a9akn0cwbDtsaWYriL/TPB1tg7euj9t03x6+I39xaQjmo1Wedc973DBhiMPq1F8+/6GWFPZk4klljJo0pcpHIfC/KWVDhDvtBx4cfL8VJyWgbe506hDKwTauOxrxHoDBTx8uDapXKqttvcM7SeUd0QzQZU0m7S3NchxpIHy88MUkB59PNp/UDsoPEJoOxlh72xr3c2+zbpWU+m0iO9f698dfMYNFdPbTEO38zpKFuCTyuSPnHHd8gTG6AspqTdt8jWVUZEmni8xhfUO1qRzWqcO89z7zOUacPmDF+MTGTaRURQZ73FCnVz7WJulFnFySKrxGgPGzYm2vOFjTTL/NaNQrWh2KBGiJGB0ildHT1UXlErdbq0SOlIIv+xT5VXA0TVk5jH0I50H5SEnjVVkdaN0FbDKxqPwaq/PBwJXeJLqdlMPbcbvby92j22oqiq70zBaeE/1kYk/FMJ+F8Ir7vvpOC2Rlp6xCbti2csR9NEHw2qUTIRj+hzeJeJLqXOo8MXdC9YE6/7LlGrTINjRnSjlBSgTpgVw9f7+IeyFtCxHPz/R81yuWX9vXAXLdQiXcGoqyE0Sd1PL6xGD/0/steUKjADeosL172fK9yRp/cIQ3WS+ZkwG3pZ7m8HGjbb/1NqP9OVisLmX14rbodXeHkVQhRXg4uaXnJebdYM7+qot/8qCZydSU02LamBNq1tcK5JG/697LFTauHyRMUbaS0slxieeKbYlTEmf8QK2URmbgrUPRFHhqFbFpEzSbXHLOn2+oZ+oHVG6lwwAXH8WCEIko3Zvr2WTy/Z+o0MZ4TOow+WbubZb46XyBRfDVdlkOMfH0+HGJH/AA6y8weLIOURPDlXALx/K1Z7flZP/Ekd7fV0uXfH1kIKLktmP0ECpKVMc5LZHBJZBxwGBminm3M7pzwllFXzT/CAfSNba7J4/cVJy2Se0W3ogIyv+lz4bfu05IwGm52Gz6/Mx9weHoO+zyz2ctaFHtORGEuLeQWg7n5eV8k7aoYmEmPJd27xFXcxEdLs6Z7NCfvk8UKLoY0d21DAhRC+aF8iD++79LOBVwuiTmY2Db/SgtkWBrEUR/1hUGFd4rhK3cFp+AkTNccuLLFGC1HH1fOMR+oN3wFEYrsS8dn/aBoD8g1VdvWHGbaswzlgHJN2CUrzGVCt15X769TFSes1LHdhTZhLDlFoOVr1TwU/QMt1qbbJJynt8EI9yVAkUS+RCUEAyE78P8V9P2SKtCf+nxkWrXSuNjtGTbOGZtXa3M/bY06pNM6H3+Y9xDe3qiu+UHqBNoi+cemzuvG/248R+5yjIBa5BezL3MUp5NQoQrNl4z3JDe0W3oN55qpo9JttwFz2b3RXe5LQhxyxz+6Hk3uBetogXK73q42aOh8fqaqXtcZuLLpT3f30qMAaimk0XMUTWUXXrZMcioEs2X98NouJNbESb66JAVvQV0a8nhlsYfjGWdXdpJItV+2jkP9KnxfsILiypmxDFpPPbgmAt291JFvlCuAqVhfGAUhhOQ9144D6dh0tcVNy79JePcuukCoJ/RyiZV4S+rv3BQs1QNCcuvZlls1nOFnPBaV3t9qQqG0wcs0PVKkygTTTTj9HUYSv9XWtsfmybhCdH1zqyHAZl8uQLHv6J0qQR+gSNKXc65OyX3exGOo6UEB2texsx931AALYhbE+Um1L8uZNUm9DIA3nK0cuYj9ZY5vPg1KD/uqxnrM39TnfgfuyGgHFYQM9YZfQIvhnRMmFA5PACZb12ztTy0WuFALJNngkzsY1ywUxQpMJ6pE0Iqtjwc22ZyaSQnbnPHap9uVtfKXfh2C8mzHO/iYRzd/2zQcF4MjjkBBi4st6ROEAhuSo4FZY91xhmy29LEE0XGpzboWOguyoqHxSF9/fl8oSW6ifKu407GBgAnzJg3/DFmXv3w23kePt0FwsSeNokfhfDcIfOiKuAjOo56WRArUXUWL5SGLtCAFHoA6pruej1tlk+vgaXq69cTTN63/1dh3+7rv54/JY/w25OFN/yfNCLxYHd8vi8hxv16qE6nD/OHF+BXjOmY0DPzya3Ck3eHd3yGhFtLE6Ncw6cfo4tiFyTPhWcWCU5bfqt2ZHTJ4yFHdfAhS7D6uJtutWHjGF98n4Vbaa0FJ99zcn4PlVAERE4Yk+S2fcHPqQmIqC2n42mJsGHevYHXntkIR06NIfM+R84rHYqAUu71LpVU4DCgKJQXoegm+TcNPKXQN7Y91kuo/j0oOXL11Vzh/CDxuG4+RptCRu2kKRSqjnfpQl8v3pAhsNkXXVPuae6Ja/JuTuOCkkI0XELXWkcdFvfTiKAcL+P9ED+GTm14nq/govaVrTha8gm05eNN8lK4OqDKRdL65vZraYQvyp5091qSBQqMX5BjLjuvg+mSy040dIZtv5pyrHVPhtuB9dOR84m5Ii3p4v+GOJUDEXEaVnNP4dET/YBKH+W+RX55Taoza21o8zDY+bU4obzelHQvsHtZQRehxOSTboYOnUTPony4fzwu+/m/kE/t7BXw+hh4Owg9/icvwJOiG/Ribh/QNJ1ENHDr5PvbY19FZKAE9Zjf1GjqWkxXkZS8b8/JiRsioO39ciGY23wLyXlK47QvIQUImE+UL3Kvhh0Bj7qY+OSHQYAjX6CJm4Ys9o7HmmAQ/XPgAB1G9cmeKE2xIsfce8Mipx23A2mSaHSYmdmBYGBL1nDkfu0+3lq+mPUIsAZVFCo/9Z8ZjeQJcz2q8X/pnVgmSsbittma0VpdzYoqMFo9gnXsr+ePsa1M4ghWp9EwOuA+vNS4qHYWOycFb776iWTW0qGoDQOwvQwQ1LG3TM5EK2HvyVsyzzZYlUVWevEv5fbMsWhDtigRgWvvr3fVqFTBEvia6Gx9q363ORWP1YwBa7H6K0N/M7/nE+/t8HdVc1Ahkg3zFb9p/R+d/9XAS+DW7dlxovNvhGtF2JCfafTrh1/1Os3fGJE1B92zcn10aSi+HqWZCsz3KycsDail5ywNY8w7bg7K4jpN8t9G5sqZb/MT8ujwXDKYzQHbinSPwx4QjWp7Fka0MW9WWSyZiPSMA5dKg9UFort7v5mvjTii5L3ogfUBCwIrucIIUSb/q4rtaxnnv2ciM11ftAS91bI4iHXAovCAv6GgHhqO9eVa7LuILcAIt8Kk+80W+pcQuvvREhoncdR1vuJOHuHSG/+5OElfH4jzj6+SsmXyYAeJ9aLa9+zQjjNdE5oy6YR/n7LwlKXR1KKTR7GnqO4PXr5+CrHlPtTrqEj22xdIlnwR+NoZCaX7ytyYosX4ooWKxkxPFjNnhZMMFHl8wjzYuxOpF1wA6H9ULiEUkUbk8wT3CUF9fHrR/71ZjKd+9i20jXZRDpzs4CAJg9Bw6I3no3/Hir7VYX6nhOf/RiJ4NtyB98IGAoUFVg9+KOVG8k2lZ5UGI1y+uI3RdgVjZlMDBInziLXzscbLtL1nS5sKgNIQ7n4c2b1XHu85LSxbgW73AT9WIzPm9YZoeHPb/F2OMlHIUHA+Fc85M3UYhUqHmiB9UvAbO7LH+nMkOc51Otyiday+Hlkf/ot7AgG43JDMsyRMgDO0OQqEJhQVOjGXqwUg3DqjO8fGM3mMsm6cdA+Z6DrVDrAhJoB69z28G+B68E5VIQ+gVjP18vhknitG+MVt7Q0rie1CUL+kOJ/PIhh2XECb+VNJzw2LP/txMjQsqwHftuIfSopUjxJnI4pOHMzomuoXZs9swpVKeRpQdHpq4vtMVLzE7CGOXObyeMSlfo9qlJSxNHKVj/hPWe8B9JYdi3tNbUILod9Ivx8JZgHSPgvdC9+R2pXb5DAulOf75KPNVtYZcaKyZPyFA+ENQcJkQ+9B6KSYd1VSr8Yyh/ehIwMiVHcczcnSuZ8TSzzF3F5L5oX3Wc/C68Uvg/bgy62vBxixiGymjbopGCjficbwFy+OrkCogHrRzFZDDrvwHvWj/MQyaQZdetjr53UGSQkQz+7riZv0HmlxebPEJDqN7DlMUvWbin/4e7Y30WohoZytLoT4PpFzrd+mn3yV6wBz2H1cSjjexbwODsDj2eaN0gyfSGWu20/NT5InMC4Ka+KJrhQ+4E65Dmr2OYEQ98SUL1CzAxvJ7hGMfS/QEh3obzF/jvZs8xlXdIthcOk+3KYiGwMve1DTdAZx4EIgkoF6c3redDZwOmJQiY8cUeMIl106oaB7Ra7U2dnHPpJ7Jq+j43X6SZBC01JYNW0S9hyNxiTnX1a+ZY789AMYHIeSpbXGk4PMcbMTjK49kRZSzqpg8L6pnux8XONq6idJUEYoD/venlEoWzpoki7uU9/KoQGWiwYrsN+Ltr9c37b1GjnEGIbC1/KyfNnS8ANu+xjmS1kTYX99TlptpsN+1Lpp483KOIUE3O3taAFBIXwGya3d0dOwjehXTBDyOYqXRdGPTH55QmiyJmRip/o1d3q8Wc5zER/Vj8ojZyNYKZ2aJlPibQEjAmJmynMuhFJ2l7c1FfgnzT7GUpUgeIZIcMabtMtN9PA97ezkEBO3y/ATEOLG0wFTuitGM8vq1PqTs1VGv89/XYAKjQGZVMFA/ZIULf+SwOn33hiUht15iGhORlCY/w8xE+ogjDeJhtcTaBGo8mkY44m71FwSarJKCRrIp9f8FBnhgIUgZXrhvGN3ua5KCpmnlk4GEp04jwSSIqMQNVikaxI8uXGw1y7UcALuaIREa+ygqfH/Fqkm2Zdp2uK+Pg1jCpv6Cp6rCi7f+gPdmu8oMHgHFhwwUc8n6AHqrNTbvps0HBs8OXoEMmCPbtQkP4VTzFxYYCpifxcKVMjwYGa6YJrnsk9qW81KMh7RudhpnYqCOCWZoxhBwVAm1nkujh2Qt6v/GgjF+MfvsVtcl0vBeAynP8BMot4URMpCtOk7bBZu29byTj3dXf0lUap0KmlPtM+9wLauTDtf8UeFcCTnstrUYmmWrjpoGjqNZuenwPkRAFFTo5K/MdHlPDncODN6YMhkAyfFDxJbQ6xUbjHSrOyOAKolVoA+RZmFNo+ENYuRQLGFioQTsCrHi8E1pIv9s2vVnjkB+p1Zruqc0xTxykt/Heu6CQyHTHtjBit7mrB+vk3TSpfz4x2bZPB8TvuzYNU+bvYqdOAHaVUVeufdAo0WG9ABOGhMe8Sw4uEVvtZSToI8JeLVRkQX1z6LTlZ1vnoQg3GCbP8Pc0NJj2JRtHpe+RTw4U9myTl+4dLGs9kO7pSx3sTUiHmDA5V5EUihyXdJF+oNLd88Y5IzCiiQQvpD+0Vl8nlIEomFUDjFKaA8lstryidpb1+Iu21n4FphZ8aZOWjrmwkdhWatZ5HOj/N3qB1LQlK4TqVVUYvfLKjqtIdo/oUMf41FwBR7rxMacR1qRnXUQcApeb2ThUoV0de+UWOAJ+KUH01cFX2kRA9pZp0g1yiyOmaTsyNJZWyiXvSLGbVJJ0skhpc8u2gx9ZkrdwGMOSfxpmdIg+jd7DHCWDrihdEGf8H7KRZP+kMJXKD4dOUyM2oB5b8GQV4EKQbV9/xn0Dw2y+Kn5kGSUQDNbQbbgxyQKtsMnh0m/fLr8mBKghmcsmeK6QjXzwapK1YdRfdSG5Rp4hDoEmGCzQV6f1EZku7ObvghBIzt9SjDJULCEREALe0gVI/FAvO5Vzn9zx3Fr9ZEyQ3Gh0XkUZd7ls0BfipnlPtMwPJYa/BKmLFT8gmdaqlG+WN0LQLPxKAKXErcqMkY5Ej3X2PpYo5EiwkMVM/HAVh2C+WX+xxxNKZ335INXQrPhBdsPOUeu3JqH1CTjrG8QZ4SAqtG1dX9T92iuJsV4kibS1yrbnT8kOzM1H8j/fi09G+UZWbK23OoebBa0pz11kVcTatx2JxXXvpL4GY2sJhaSYp1QenP2GcTT06WaBybk+nSYQiBsz3jqwkXnx6E+ldAGjq9F1wVnGsrsuU3I8dgCeFDeofbPUGixy/wSkdt4cEWz3tDP+2vkAFrZpEV7U1PPx3T2WEo6s8PlwqB66yXXAEjK01rcqE4nSzx15G2ufEP2gKwcanCq5E727LLCedbWQj5vp3MB5uSNrFRL5AzfiY91XPixJ4jGcRBzLyH4jGsFnyYvVde4TCFiTgvLFaPYV5ayf/ORXbC/1ByGWD/THlgvzxoFCmiazp7Ohsozx8n0vt4TFwMRb+TIlcAf/+RHXok28E0TQfQG7X5EVXSeqv7me/4JM4OwtFfWOsdbZjKv5kVrIjVxQUe4GbkpM0XaaWqYVZr3+5D2OJPXDhmRhvLk2HnCPMU+PCfzxf/KdatrVk+MdleoTWWLFP1rmgYODfgrSUnT5zPWEbLQz1pif+iy5/1UPzq8lIJSQ5pyp+GRuHea2J4jGU0Mzgf/KU8R2XGwVH99b7OFTzShBQDx5hKnqtZTg8EMBZvkyOVmplAm7GHgh+DIrKMkV7tlQrnirK9b9mB/xJhbmbMBNihPS33GEm+2TC+EC7IGec/YldoP42uCkovptu73KdvZigxA/XE8WJdaUr+bOL0FDBe8nwh/P2cuGNShEeGJnvbV+hrDkvVmK0RoAVpwdus20S0QDdml3h5mguSSBfzovgdEIa8UKpvfOiq1Foik62n2ymg/BPSfNM8o2lkYwXDemDMc5hKXlTU+RN0SZ8putQzzqJrLmvXBWbRsMDVQwaAtE5JdEdrImLtU/j/F2RV+gY9hWUkPgX/dSSWgDwBv/pPZIGY5jYq+lWxyYBA7aTMQdYVszZS+OoTxXw9mfLAROYz9clQYg7NvNYyzhrjdU5IX2CQw4c1MBM+BgSu/wIdZbV59cNmIF6lvW0yiTdeTXPhREfSlmGPhv9Lx7+pWgaiKneKUwG7cssy1mp2Mo/CuQVCe3ot/FBzoTF6hWK7BY2fdkmhF+OMm8ydFocmqNMABClt4rn2Y4v+08PTbi8zbKfj3JvF9LPzeJQH1+myeOR53A/dqgM6EHZG31p7+6i+V9vGRBhv4zD73CvQkV9WJQOzsUbZKNU6vYY/Dc3EYmd7ZJLcLSTQibTF+vbhTzTbdOC0ArnO69f2/gQ3QeRO9YXlL0eIB2RS6AVWVID1zXUuM99z3Dtgp3mf5RnbDbf0gQ35u3FVykm4ZMIhyyra5bAxNxjDYD0Zxfby6cvPLsqv9yrTpCSMQOwPVWeh6hh+zqAlk3s4nlJgaQLdsgezUKp59eR3ZSak+KdiFB7LgUCpAdVyBPcW5uzx6t8qk2sQGzCLoA7aTHjZGZULBFC7p+YH0/Pjj1CWRLgRW9DSO3rszvV0Vnp0Kk2dPJmVQF7eEJDSd1B0yDm8SjVmiPoqaag+cYaysSZXnEhaY8JBqBmP3vaE6jzbiBsgj8cCx7R+xrZcnemBoJcvCFFYAlRJu1qHsMuCE9WPLxbeJTAbliMQIgJr/JQU65borsx5vdCUPTOSEymIgqPbcLmBOp31liV6S4Pfcup7aCgmj0Cyjtp7TGm84sAD9/QzbewEhF23yur+RFV1lplRO6+f5lOfMJjUyyAm6wgQz0xliv7bRmrB2zmGp7DQv6LIdJQxj/g/TxqpBdWfvyrQ6g7wf+U8ookOml9zGsP2uDhMZxs5tRNj6hIFrq/jxAJ5QtjRESOLrhInw7nsbWugfsRmn2a4qTU/eGtiE+QAuKXen3+7CTZQElInD+FH/kJh416KjvWGHOrD5ismmRsRLE+mc8FwBpX/KXqgfDuZVcfdRxgrN5kLTSPUACbmeFerp8i0aBQO7axim2A3IIA2LicOAATlSOOmttjBdP1Y7MzRteL6zectT2oPku5QnAKtUFb9x7ghQkNNQ544lctnrt1ILdSDrbOQdVjD4KDqmOuw/c6N1vKm/hCPotNrUhtas/wEFgwG3/7Jw3HA61kIxjgy9pHkxFLq6C572nTkX8qe7qXkRI3hat5V0YtUInA/NyiSSiRBzafCt1lHHlA02b5Otb1hB5kE4BdHVbaiClU66qLJeZpVVW9gmr+V5LiWtcdNP43GLHA5Pp6Kx4IOGQsZoB/9Gu3lNnNeLCr3fNgZMAPJdMI3pBddQbjl8BtSmrs1Bd1nox4OjJIPAC1QxLai8aQbsSEAVSZ942LBzw/cQ0UOmfMBwBkDq3hedHU49wVOhFh7igHpEb54k4Sfguf6Bl5WIrKg9CkzcnprFnAImg0ORqu3Esr2bw6vu2Ad+0nRkrh2bhpUt5dw13fCjmL3f+0dhlzsixNyTgtTz7K5aBBUeIPclzjs/Hda0m8hoAPSEaXHq91/bc+HDaX4GTquhAMd3SCUAVnFXVYF4t1SqdkJzMTkoQWCjelgKq0aFOoJ66jYu2F0UaycCiCSp4AQorSnSCAr0BlnudEGBuCrPyuVIVklcQ7pFoxxE3+UoZi5MoHcm7ZOUWtRzHib20MVh4E74osvoBraotYFQdacid/HcOLJ/aiexqlNXsQcWLwRA7vPmBKMlYBe2wyVykD8giQyPS2pcWRsikinI6ZW6+FdNdN+ZSWqQOr7Nljua9Z7xe8tInHCYP4wTZr8N8/AS/OpVlG6iL5ow290I30h8yX4nX/ZLs8dFNOWO5WNucqnDGaHdzbFtmu7yBZyJbfNPNJj+vj9+GIwivqYjkZKBt3HX6Sye8XxJpa1JbNEy2jhjrcqTa8O+t5bvezQZs12leJA8ZPmzShm+uet7BhKlhCvS+Xo7NtffZNRBp5yczLbbBTFSpSulqFb3cl57lcp0ZmBAgaVyaDViVexcgSxnz27GzxN7vAggtCqmz3vHG8Wc+NO+2Naq3Vco+dm9yvprGkuneoZ2pjwyH4SGHbPCi0vadyblio84Jp51p37H74NfpY+zLpHnwtFapaoCX1P23eC1F/W3aCIjGBSlogBTooG8dSVFs0oezrdT+oV1aQrLDpK+m/r6N+IcxCBlq8tSHO7NwenVPLJm+pbfeMofz4XurOxyu8Ce3uKbWUiiINHGONHx36rieCrzssh+16r8KgR4V6K22j4XdQbUJy6C1eva7b59kSkwKa6jmKFCDv6QHNAEllB09QoGllQb9lHEH/5Xb67Zw7CLeqzLMvu/cYSJXbPe8R7AnZGVmsV5/NIzIA5UNNmInM+3zargWQ3KJnxx5MoVBLP9e92hjz0EWAVeiK2AGeUakWJfYrMZnENIWK7Ai8RPFO4WYctM7xs6HpFfa8LoxGMSbdGh4PRkAlpODdFQG/8rEupBDdlm/YtHjDPaMWOJy5DmX3Z7a/ihHe3tXYVNDPyRCMbM4sP9XnKrNLCB4yXsMXs0eFmD1ssQ1FxXBNK65XjXVEdvM0YK51VuwcjgvWU1jNIMB13mXhg22tilgcYn/ihvMXIOgBRwu/xo/0ykRn9DHXrA+EhBqWhRs76nYmEMXy96+1I/BSm/Hc77vQN46Ij2CIggalUXSZ/Irw2yPLRHzcxmCDLnpuXs/SBFtj3795V0C3XOSulIomjpivHq/7RYTfZBXlToQ5M2179X2yQDM7nj2sEkqhPXxLZjAfnAYFcofbixO2Nses9gOc7blYYj0BNajgqtqT9BdrNyiFLmP3NaioMM1QpU/lUOUyYZSaewwCo8tivEHeRrVHCiKe922KhBsLiMuY+3v0zH2znNrrlJVcvceCTO8ieV8mZYYVpK1ZFB1RyfHdLbe0Mk1RrdzQKQrJUYneTIBhx81roMkHWnUj/Eok3CPNjDQVjCvAwJmYZ+10g/nAtKSOp6NBtvvNC2orcx4rEqmdqpBxhjYFHMxZLZFXpP2PLMZ5NUOvj3vVQu6zbGTlJJc1XYAjCac9pYY1yM9orsAiP+G8FuD8ZwjF8cH0a0jzxdb9re8KQ537ELQ6clc+dhw3G717eiazM/N+Cb6yr0AGJhj1RM/iut5quAT/va1fmtWe+Wo+5E3NOmtua7cOc0T9pTls/0zEeAxSjXUhYfL0htofK11ud72LhDzTvLvhRpR2oAFJ0fZ2zjUVgybOUkoVS/pL0IW7wMFuepIA7hZqTBx/XDaHIo/OwKmWaw3U8IS2jhjm2Np/ULFkjdXmHu2pAD290hhf8f3Y0zeSWlGaD8X0gfy1N1exvg2YMn5COYnBZ9MGAZ60vuUYskaWU2R7b1lb7zPSyT9Fx8TOAxIFuPJVlFxAbrXYMuccEph6JwBGkkTRDhdpv02PcLH88dF9+Ftrj+PzcWp2gQE2Ro6YSRzaFwTsfOL3N3V7MwoQpdEBDmCHOyVN63Cxt00WGvFwCClYSoXvjNVPJTHRcsqai4RcOlookCyZMnmdtJ/eH0jt0WBVaBYvkqeeTk/AanH1fJAEnFlmkkOmsyBxJF0IEuV1quKhwsQf4vm9EK4sFIqPmXUmJmnGwsLIaw0JMJBRjvgvj1IvZ6GUnS9PSY6rSjt8S5Fz7kSs8MsRH6RTqLj2qRkDEXS1AM8iKHa0i6nA0eIcdoPjPO4cyveq3yGHhcz6BIm4Gu0mS9hcjBf9BYyUXdsli5FdnNfUwz4+zwcFtj8/cIOOohqVEcnC6zgILXPknxH0uE7Os3XO9rMGy4qTbCksQ4jF547kRwkvQuVAwX5xGV2HEyOzAPXlrBr3PwpmxjuMfXM8Mb95/Nm0fI5HMpKS1zgWDxX59eLjIKbtMSNfyGaryHNZv+NBysu9fZc8c++ERjpPcB/6EMc45Hz98GR+jU2ea47WLRAA7J1MI3GlhNbL01XopLAfN1gJufCZgMkqDb9+ZWqTCTsy/LhMzHyYlQQH0ZJooqrlg8nXsoDLyQZbQCDdaxP8sh8CIEYKMqF1tSzWKxUExgvpqBjseeGXcoadwfJge0cc9nEl/6VnXhDI3UNXaLDiH293xF3U58k+qrs02OgAYYL7t88lUx6MOxL9xE95qLL9jLHO2KIizpddFUkfXdJos+CXiCGnrA8+eb9s9JsNg1ntfmicb7cFXfIF1ML6sGMhOaBzBIbpTqgCfCY0xKp52fquyQiKk3I2OTtfzdttskw9SqiJMa6aD03WwKF71mHnCVtvPZDMDxnLq02AJvgAgBQzzEO5Byz9f2PSb5+wy2yBMDKWtNmz3TYACjjLgULfQXzFa2JMB7eZIuWlBR7NLHOsZItJeSC2C1aehQZTznSMCGHudv+8+kIgZrNtePEWRC7p0FUwDXyFAfmhc9Kr8DSfbTEh1jZBzr0kpSjBulWavnK3Ji0fzDWKnUDfCO9ny3shej8yesdQzfITIxLyWrYYzULRgF264zD8Eb1Eftujh/zYJ3+oQ3Tte1fCivwDNe3O8+KHjK0kT2u67opae6xKsI4aOqAqgM0GAA7amYx1pC50vGtKUfj3tae5LBTsuZzojgCJCPtjViYwQrk4QceUHah+CveTMBSUO4HPDGwRHMvVjM2MGiHjAC5jH0R5y5LcB1sFPqXqKJgDRYjPASlXj4cYH/YjAzQgGYdjih3uMjX3wuAdzsWZn33ifcA8Fzg+cYfNdxD9bFRYC6RlDW0CL/XUX5MyfOBRYHHbC8laDlf5Ahq+DBcamCNI8MbN4T6pQR9piDxOUWQQwPe0NHoFGnDgYk/fTBlHl1h31p3A03Ii9X+iDHJig6IOS6/mZPdmUIZKVofKIgLNjJYInDmK8GxoDbgv9vEpa6FRDXVOMBFT5BuUY2CcHW9gR0GNc9qNiBvNoR57NsF1ekQGvwioYxIkixOUEVbBOdQYENek/h2+rAIIoEP4qFmnrsjYbyK6TJBW3W8gTxwVmwkSupWJE1dBMBsjYWe0NKsHjsYJVN5dvPUuPpc5YuEyS/ANGkRNx9WIwLyTNWeSOV29bepfUS2qDZNALQRfJthZJig/0EL63ylpRd05v1bJhdFZilIUl4/u2eGLwKwBxc8EcJnfChUQf3Q8crYtrvURDqdIGq1e/gGZGundlwhZJ5qvuwaX7R9Kq29QsUOSXeG+lLa9Ewrpc3RMiabbnHJB7XORuXjiw3+X6UPTzdgzmkXuajFj5uKUbn4UXJ1qo8ze7ovQj02qn284jRvXwiOFfN5C97ssNzVlFSKR4BT3P76DI20LjWFHZJxk4J31H0y7RKs1kwxwuNTbM/plrV0dKloPoNJZbWffy91nDGJWgZyUgibmBwdOh59/DnZnOdmBF8CQbY/amVwKGI2ntjfxp9o9lacU8VjA+1AUUd8bf3HUw9hZqIIuooKFsms8xoTZ7m8bHpOCqTj/10wePOzUiN+dT0OJXATATf1TD0wsYK7pHcFtOyu3EiiZW8Mj9L2FFX16QKx6XhstI6jspxc7RHGel24iY2+g8rCP55XLFH4sTo+sbGknM0+czSMsabwCKi+AHI2pJP9QsPT/tDPBKPfcS9/BdCGWlhPabUOaB5FT+bMOEQA7acCKCTmWwzM/M6GGG5/fC0EiuXtYkPRP5OSu9xt0tM2ib/NyJXmokwpblWwuroD6k9HGeLPzx4+LzrRYH+vaN6v7IId9M4TIWnsHGQpSKAHVO/i781rVsGgAFhttudNcSBdfeZyVNedZGHHWbnZtIEac8MKQrvYZ/G8fNJi1MDF1zrfTP3XmEj58a1PDt/6yJUtHhIobze9b78OrPPZQ4oPGdcwR7Djk8qYOFm9PvYQkglcaEq2UBnBZLlBZTm9OHddNQan+skp71t64mCuqdw1LzRZWFDTmxlPIEikXzlYQRRiI9P30ReQlXDyuv3Ed/BwL7ncjQFdFP2uVv8WeOy7ghtqYq4mfq2dQ4QlFOZZLQv2lzEdsuT4bSB0Gr56qMQxCYD2gVFy6NGWsampO+CvGCOmGFBky1rablzC3xR7dHIOK7IU306emmt90VfdbSQGqEq1cn02CIDHbMAECL+3mJs+7PJlaGF0NgtQJ9tm4HW4GDr3hchWikgVZLWiC8K8bcwZZ3R5zc5fmrhbVBrYERsFyzIHBVJ4qe5kpRZlWIpMp/e6edhUdcgsC5Yf2I9ScHYMPdOxc3F2yq6Z1lbtuAmWbLeBLW9YecbMoIxbdW+YvcQ7YD1a/qlYxX3vIBRZ3JhtligDn/sWmxzcQInmvj8684h2mYdEokAy8Q5QTb/vkkj9s0CBLAO5Yda5HN2mjjHXHzWDPerySNz9ufl2SIoo5SxV+0bIgWMMVth8KswMdjL0FawACZymPiHJkrbmejqgyPjhgZLl4eI46at9zkwXnT5P4uE5uaAedYv+opgVs/41GoUe2qpsijvViGesEAUKh7poYCN7RvMxH3r3WIqJ0nQj2NZ3YTVIgRnzxbAwpb/nbqf0SzpoDdYmrTzMCGMb16tCfO2Go2hfHaDE4P0a5Zda1LiLrAqGkbOITJ4HMGLNsvEeaI/FnakRKBmF2r6dZxh6hEL99Q0eDtORHPB0RG02DDaquJo2OH7PxEU5t3w2cA2bTRaB9OUCH18eEbe+HLu5/xaH4l6PeQlXSa5I3smGcBlYacVbMTAso5hwZnjkB9FADIGvjXqgaJyRxE+7UyhHoojT94emU4IjyBHvDEKKMpVoIlb7wGkVBiUG+KvVbVvDjgQr40Z00JjPQSA/mgW4aqGjoopF8JeduE/lo7S4vvZp+P8YOfmcW/sSy1kLeYd25AoYXiliZuiG3WUD+bTC5cmaGWOpLMjGBNQzGYrh1n8NOzUIEJWPMmnTaBl8Kg+qR7Rl6HwXKC5unuVegsAVpJrRaxfSYSne2JctGf+fN7uTanMcGz96kqQNbELOsd+oprNVHCLUokUsVx0w6PmmEHm21M6g5UZgZL45LeieEUiW5oU4InseH4ebnJqC03EOQKXW76/hF841btZeGkrlaKHSJzHnurel54xEh9jJOZfAJyLLbUBWQ/4wmri44IFcWYn5Ac3BVeoq0UAg8bnOKFAwPqHLlVJ08suFrDreb8E1bYtps++WUbSqlFcJVvX3PMhr/7N/0Ph551A3YBToC4B7kGg9w3Lp2ZML5fK5+Yn/k/sgiBrISpczBkXA9aSopKICxMZSL01HKbsV4M43UP4LILCPD6rMhRAoD2xaLlGjrTCsg1d0hc/cLZFCgOmICobybiDJtfUE+qZSyEJBXu9eHnu3w1wFATp406rhJjUcBEgOzwg5ETHmMh0sWdl7g+PgGyafVunRlS/9lUM18J1eK/r5MFivO30lGtyM2kEuAAhFUH9i9j9oej329fXSttGt5C6KhAiabTlukeZ3LFE/n7buvJ9+oOCx5sSaQ5gnRaC/uAHk1J+rAaL99qDYleV/Tp5LCGj4jDNsP/c+lZNYNIvPfo+MvpwjLfbdfW3kH1jQzAcm1O8Pz1wzR5kC9jH5ngN+OkAEcYMw/NmAqs8a7CR03rye+qZQkz9kVHWJxWnx2+D+ZLQldzVkcZNJ32y7fUW2spuLcbN+9t5/6LE2aA2lCA5MfvsGwTMI8YP13Mo5ATJ9EY3FBXzHNIGeyG1+uGC9Uewzgf2z3jVcD9rK9YLZRzVm9qGOa8+LycNSHsSaTwzPmAh5DAG0VPpluwOLm49fUXqAQQtIhLl4IENty1TSlcHA5Ef79vIHxeMABPwbhd350UpcEPrrteNHd8qf6BeXB+9NJiSbx47Xubyk0SZc+ipCr2Cc5BxeA0mgqnPEimWPqqUPiC82bbR5d3IpLjdv5lVsDmfVSQOYbCZnuCpogCuxUpXyFZtNa9xZ8RMAo11vfOEy1tvGeaiIxjN4Daq0HQHtqIyNHwpcM1DL7TKrdQIA/d78xYwwducQXWpB7h+qQrCRGITvZjtMLSxlemmxSEQDUgjsRGZJgm08bxFLMMLVGwZl95N3N8wcwlZQdcBClJp518doz4GlY9C8RJ2Qgn4bHqia7z+s2yHJq2mKOt2t6+ny+kNITXKDTB1ZqK3cnVvr5D7rTEP2cOt0YNvFQfvUfzaj4KlV28J6CXsBGghjI6aAWW4A5OqZqb/511ro7Qc9ZX6d1bBfkrg0ECLIXBS/MZ3ZlkzUekb3gy8b2HUexmMg0cm1lXHLijNE3s4nKDaayGfTDfPhIupkg0va7cqA23EpfflxT12UKiNUTyd4V6F1lz/s31GVCetMQNJl4q/Hph9+wZm+B63U1XcFfLEBclW8XdIC+E758ysPQEFC1FLwymW7KHgvuZR3rjVVfdVnh3fDptDN8Vj9zauDE/8YUvpqW2g4DDo/wVAFnZx+ccfcsQjRD4VWrOopQJt3iHN/DxVwqh9TjI0t088+mx2iFvPPrBLx7pi/ggfcQRMxC825ezmINTJBa3QIHeDO/9jxJkmA0J2EHX8xa/lN4UXY22tdMs034ZC5Dg0DYbtzAjNCCZQlC/UVJLKrh/z7QxrIy0UAjllHHpHsG6yi6dOLc5p/b30a8aQtVfM/X8MTcNRwN+bPCglDmlIYQNawbtjb7MAkJzkZBKaq1ZkfNdLLU5rjbHOIIRqAtKvr97iMYhKEKUJytvDPlxfr2jcRAB9H5Grrc+r/sjuJ7vvEn8GYHk2VRONmdoJVMuNgBg2GJQnSg9yiu3jJ2VTeZOoE0ozkK3C8wYRx3mWEn+Giv48+G0Bz7P/4OemyvdUwyLYIBWcmitjTXDco0HJQBvMRffA0x8yZHqOyc6d+lZruBLSYTsLu3jEXerCFcjq2W0K30JoWYgjzkm6peUUbmJTKqpY52oTVM+Z/cV6FmYC3XEZZk3wBXwYzQT3cgSB3KmpnnBv5s5bNVEKPHcXQuMeFY0HB8gJVFUthYNUQIR7/xMI9u5M9oYhoR8l1cUTXMwxmQd/AXquMLlybtRIO77Juo/0ojLzawBxSOjhrmwvwpQh91JitZ/CuCYAZDtGo2HDzuiY62L347y4xcvTa49Vcx8oZ8t/wDYNhePOyMYQmOePXv/qUAKpvBj3JsGrJHT5o4ggU/XitkbzRhsoND8b//DC1F96RGUz5pJoOX4Q+hpnf/S/HPqTXIjEmf8PYya9qPFYEopQk5U+uEzNnBbhcZBMi2PxbWYSMQO26pIXnnUL/EVWSK7hvxcikohO7/8M9FQdtnFI5hxW6mtNP/5enVsV2WcsXby11PQLldU9w2IaPhJ00/CLicKs2qNOr61TgShGhqap2FqluLRKBnLy/mXfgdYaUtgqd8In2Z1WEmrGXosUIRFuY58TCooeijb/t+0F9dKRdF3Kh4woAbjtuLjzX1Kqu0IwfFR967m9SnC6yr6N5Y/A6hWoYR5mAFwwyFJAnKknluXc36CRVZH/byBdu93qiBHsbvtqEmJf8+zqPg7xXhPlQVNpBWgZhE983Xu1TUEaKvOIT7ehGxMsRkmVGR3ydG4dLe+vCnFMthSnSnif3QJMk3/r5/k7QoybdaHJtIQVNu1gPWtWAnXT0qutRohYSho5I5G9AK+KkcV63bkRj5Oqb84k7YLfNQaeJqsP+sulT+LVqIH6DAI4VQCwvt9QKVOQBlbv63hfc2mPiTa2Hp0BcO8ZVHlI/PI3lqq+ArVg0XUcF/RtCCc6E4PQpvcB4EgFlbR0TA4Cb0cRDTqBD82TXmSCZ7UtqNt9cPm+0kGhi/HgPEF+eihQ3JcusiMLxVbHxPF/Gm/dOY+wtKqlmYJBGqy7JnyC00B+OCkUWRJGsMcMEIrmSgxIIVH7bPOr+yFjl3ZIIl/qCAoXUHHw5L3y5AE8Ewq8TAlCxJCfyDd2V/7TniaqCSsXV23kI+bZr5P59vLD4xyKJj8+s7HhCXsh10311QTFezVFsGHiwgyeEBpRDjHFllfOr0dNLg3xKjXU7PLRvULZcLHEz1eHEtDEJ4ZcnSw4gU5y4XDbYErJiXAIJX+OCeao/+k3udoIFT53o+NSClcP+NhBcRte0tJWBplvRl6HPmObiyI+GRQl64+01Tw3b1FAOlY5r2YrGKs8QHIWh0wH+Z01pAf/34jyabzLuCd39VSKEeqoCr5YNnGnK6GtBsyV4D/pXZKtR0AxJDYfAOr6kE3hCPBo5SxJfln/69nT2Q1tyTVPV9YalKQFAH5h+ffbnZ66jQdfBnYNOT1PL8+zHnhpsVkvWyNYbAaEEDcDY/yfCF0HXQisuFEkSnZGPKXXTz2xTopwybQr+S07TxU4IVJxRort24gU1wLIZyU4TCB8Tgf+AviRaHmf1UDY3ZCfQNlLbUsWSL7/j9z9hc4vFCvGMUhNPxKXOzaS7OLox0np3mr+yJeL9OjoOWW6qqFBvNOjrSIqOTjg+/bosEta6X8+OFdxhElJyBn50Vh8O6ni26dOnNiefIaUP81/uq91Ojga1AjBkN1NYcq2yZCi5WSEGrhRsMt3AAAXqxFT7ZgUFn4ZfOGtZmcv4G5W9MfmZEptPAxa/EQilKd3GAWz0x/46k01S6oUtbH9bbflfbbad6+mJ/vVbfIWWd/hdGU4wE+FfG7tXu/c0AD2jGKmiCRe47brdEWgcbgbTTqnQsdGGbjBya23wL1EBm7sgkxMZNYW1t3fd7Qr5lhRr8nDY/OAYR3h8MZBK/ukCRPS7r1lBYaHTXAbqeS56EFn9zXJrxGqMVOjep3LH0SmJb3jvdy2HLF+4AnCSvVbapeSXyboxNi9XBBuQpTcnKAi5OTPca/kwfdys2RCPSWDr1VcYD2KJfBmJYJiltK2jteON1zLB2gQAHxfuYMZnT9vXze4NjNVSZM2HmwG+HAu75ZsI4HXjXS87oVS+s3oQG/sWUPsLitUbmhwO2Tgo0xHLAMTJ8l+OxPnSLtCiHWIL91i+mIBTexd4sTmQpZoF04Kwykb9u2p/9p2zB9pxqihyX//VZa8W1nSw1noYDvolERX+zYMKddce1SRJYAjznpc57RG/ATODQCwyHVV6x1LWZbR12LmTafOX1L3lZ1R/mpo0OFSCJTNs1B9+nxTpsyifNYL4RLfTNbvjcQySfGZcHBt0hObrIgMq/ionmv+PykAmf/gZGUs6OYqjS1sor6AU+nXq/4SZpSegaD2Ny7VceM+uHrESvRXT21CW+F1BnsffJUZNv8KGEHaEDRUJK6VfnAzh1Tub+SS1ZEhBGMmDBVk15znFpKgf6RYbff6rbiZ0jMLC3vR2idboNq1S2EL38MoVV4qlQhBQuTwN164k+k4QFPkuqqcnx8yTtJ7o9dw3OOsCvU2qS3dvk+GQphzfYFBob0MVVP/trHv4laGSkaUH+prTVeDsR0d56gIiyuaAuBvkl2HipYkVQliB5XIR5MljSrPJdJxcI0suEAViagIlRjzWxydSAmQDaO+dWqi75xmOuaAMibUwNx3aZ/F8yYHk0XvIXxhqHecdVlKpXYz/KFjMzNojiI32nQ9dkgvO9iaesr4yvJ+3DuDHFBfF69SeQbZpWBBqvNc5gXhlv/FqA3X9izuDr/htmsx7orL/174Ww0zkzIFPThoL6iB4DrSaZoaIrSY0T41jqgr6z6Nh+/Xf5S9gWfcwKo5qlBzVg63JENIjQiovlgG0i71mtclE0aJbNWqmE/m4Gp7x/Ju/CQf24DwsKraJYut2ASEvLLncLoAFg5rfc958q8vrRUEhc0uHKVVTTCqpKAsCkdkBP6gkLvHv69PMaRBVXh0wdvEbvSroVfYsvhr8PNTW2mfLO8NMwj4ZoMeZdCb17CCg8oL7794WyPAmhRo+jKVkWXrNgjR1vtyq/4Twinj9fhgRwXxx14QhrNUeAhc+TtcKfFTG2LXArmaJ86foBNdwPyB+/6VZNjZXgvGG8lU9/iT6vGSvxpTEB+tbN7O0mf4crzQYCrEkUAciUbj+ogmh392syU4O5GlwCqxKJrNb7Y2/sIL/JsFTji5KLftuK1KJilOxLwwzDCqt2ulzDBuuY5LAf48TQSMDEgtqD9WORQ65jleKgv7MmplQ/ZOTl4b7Vnuq3z2xLkZh1K0GodrE/5CrdH/xjO6KHBrqlWXQAGbqmPlAo4VUE1MGluXBvUxrre+lvU+krr5wgOFC1ISCCowVCC6HggktNyslGg9gpWTLLb7qfWLMUI4DN3cBmYjiWYWfVP//NjvKhRMt9ofWwjHx9LsicJRqpsweKvmEWvg2aXY37Jum7bkqYcenGT9i7h+qtimZh72/X+LpMCltgAfLd/sRvZ17MC886Rj23bv507Uj1K3RffPVUHlsgZh2mq3JYG1fV+4kAqgtb42uDW//q+lJ/MxpwKYej5wGPmi+k7MxBRI8QNoKBZorJK/7octI/KSPz/fB20V1DsJg5/2HnIL58BrtkAgR6XRkQcCFuekjLna/S09YFKhpxS2MvroAWPObX3mPFIYbaLWKsjWcwiHhyxaKvW6BwAG/XiCFMPdzyQ3ROjPsfTtHp4oXC8GG5iZbAjll00h6AUoFHwAE8AEGHQQO3+TBJyHjCSQc16l0flLdfyLlEjmZ0mtwAMdRXd1FL67KBVM+S9ePzbBz3jbcNgOnul4xcz01h/FxNYcVNVIbxHzZZ06N95FqSgYpVek2UwivcUPVcS/PhDIuIN3r8b4i36djmVuw3yof2U3fXgdRko+vo3BZ223ITlroB+BgF3Tb/xieAiGofbiCaANFvWnkXgrZknGb82XvZ7djT0xHMa8dz0QsUW6Sm+3QekQaY5jLL3vvkJN3ZWJ1koO+/zvhdEwm/p2yFTj9tnY+QTwQ3xYenUQNKcCFmuRu/tG3Jc0+hcyNjOJpsrDqHxmrinWKEFNamwARDpMqTbsEe28K7AJfnbLNb7L08mc4aD1KFKA49A+2AdWFwyNuaUdYplzJDFZjx2yClhxuCwNNXMddPWvfTot2hA3cPwdEGRXVa9FsvGjN5aRheG/bTJFABXkQLjMR9gXfF93XL6KxlTsmRthqkU0cCtd6wHCTNd+LvlPnh8Nbnxo8eW7QwclMa6yun+Ynm+ZqgXXhYfqQ8pBxRWdz1ghFJRwBFJTt/0/JecoP4XhsinaSld6bVNG2ZMaHjmqPF6hNOGWfNSvXF5cLeqGP8lAQBBHxpIm60iCJG0PxyTANvS/cLNxmM0UAGgOkoB4utkhKfzwFCMB+grUjPx1IMbkIKRCMtjAhjDLVevc28dH74RS79yd5+737kjQ+MV+CY6zptgiVPdEcHdYAQ0TC+JRcckdDKjmLRP6SfDoUdmBP7nA3ihi7VI1gagm64EJtzpoYaQc3fO7yPLWArWFiqWPx/F5Q1MOZiXIOTp9Xg+mtQCqZxi3XlbqF5fBzM9t/4y0MzeJnK3RDdlZdRjR41Wd/Zd9i9qJuGedcd2djlVOMZlMD/YqNO4E373WKPcGs8aX53i6ytpIClA7IgArlMIgaPKUcuj8QeygiAp8k6s1DRJwVthU7jMJAz8AGjd5rB2SOs9zwSm9r1Xrziz3tg0yOD6BMTwl9J5C+AreRAdrBfBH+ENOZhfNBRdCVB/7pOusn4uTS6sa2FVlXKEKNfN3j7qiEMTE3B4+ucviGeUcuPYOJ4I3BjB4kVfgItT5zcbX6u0jMNTfYKTEFVF/PZeVcKZhp8eiqC7c8hohWrsijfwS0WaYxLqFmlzk7A2XCwbM0/Xd4cLYRez0VlQAA6LwWXm78wPZPYszY75sP5iyHE9OqA2rUBDpXopPL7HrqM4pamRFW12vYISJT/XNxHHomR9pm36fNGYLKMPDTOH3/lvwqkWzo33G4G+K54sL0JGY6tcqSRcmhNetpFfy8oFMLuKEVsEFM88KoumWyjvs2MTZjPBagAzAXlbwZy4aehfGM893rI/gnFnSEeaDuKw+8RUyzJ1fxUkhfaYCKchSjOkXoIyMCQWclIW5rfVdD3FMMu8iVnmTRAPZWgH+eVQfjbtHzFcQeHeTOPo6govSNqWMmD9niPlCASbP7a2vwrpxpo0FZD42vvg0U8XOs4d6sjMfmfku4YzhggVS1HAqba84IGk50PVVUi8/OG4hAzxqRAN/hvGz5G9KVLZM1RJblkCoRml6HYck1GRvvpVAuSJOulfBviteMmyB91c3Nms7qVcXpR3e6cGBtGRuchJR3LX8Y23Q5BQvR54irqFJBLs1MYZ/Tc0YYbdfYqKBipCS9KmjMg5XgEVj95sOe+oOVLDHe4RYFs92t/Z/358VJyNPSi7Tjq13kGmDEDloSsMsFAG1tQjMdREXLhQNOnygUU0eaFxCLLvPGpseDIjxmpiMJr6JwqnFY13FU+X7gwThkN0WpDv1Ei+IXUSQZEEtPUi51420sg13opiBIl6sn+ST4HRwU0CMHK0CN9EDEgT/6rRR42NlTR0neS7hw6jIgg9TVuy3FqtBAJN+9ouhTNs7tYjO3x+3a04Dt0MswK1aMlH5ZyX31EUNeO+R+ulCGtEhHliSe+orXtVONsAG6nhWChl5bViqnFgjm/NkhCJJL0ehCgZGytEFVWCoIfIyp05FPoyj4NodKTcRbV2iNlZeNHpFzp7XLIYPj2xWhAYYYXLkMd7S0nbZ/RSSIJtTC14NMj8LiVdbV2qu/rkS0r5hoKY4WMvmi1XFPUmJCKsXgc6Y5rl8vOHOsLEUt3xRQ+Qak16EEwlIhLlJ3T+Ykcuja+yWbWZx/iBsI8o0xxkNBVp8sugbqNkO77BhHDaUda0JVUroOSTzKxSAuYoIbPkTgEp87lDsqpS0/0Ab+9D+/FrJRK+Kso256scJpxO6PQJp9QwzVdwKbCasVLdvUlvsfkeVU/MwB5hZPiWZfuYFYUwdUvubpoBckWjJfj5vl7ZiuUpB4eajcOtQnVB5FbtAO6q4Po13wSMR0Q6CgIPKvg5goq/8D+PBzZK4Cre3Rq0fCDUGrLIGLyitFgpwl1ZygNChYWq/AqKDciObwO0OeZxaasDEIo/pGubfbIUU1orNErsKNAbmKLqx7xK4Fku/X6PTxirP9BPxyGd/vXt+Oe6kh58r0emStqLv93w1DT8ASNeUUMRlm3x2o4Twt7GKA4AMmq01lrao5XXRxs4gvH4gZbT2VQi66m+YeLxWbNnSDBTuoiAT3japte/2NvzYvym1BmmLHp4DKxyppccHlU/B5ECwuZKbezxxviT2LfVFlD5cOQAfLQ/KZkxsRW5sYWzU6XtQteNWS8/PFV7MFNU44t+SdTBXUc++ab6LzCpUvDt6IK22OFg//XJH0KYg2R2oAVoRB3ovGJeDxTS79DSYmbZXDWYTiMrRjlvK/moubREjBQRI1svQMct0yQCYyRBFyTNl0xF2rsKb7RgvgH2jiFdvuWiazEl5QYhZFl8HXsHUoC1XMmEZuQr+Or14Io/HNii0ByHu7EcTlK/RXNZ9x+g4a3J5g3Xp23vEhrTF+jwxJR8YMR5pF8q+94pJ52jKOyPyCXQjFGlkfrU7nE5CCYKkaYenKlT7TVj+TbN3sOvHTC2mojRI/DgLB9jOoptP5xe44TJVyXVpgKm4G1Niqu9Ww282sCi9N7zEUoA9j+bX3rNpO1Pa/SMJ1ljkD0HxuEucXVPw5/3uG2M26dJdx7TZhxwhsp/2ae3BxbDVs48mq7D3WGefApCLGb2XC2MEPk8Q7pj+w2H1LtLdlNSrDVl1LN2AvOkc79Ir7p9qr8jC+MmIwM+vq5l70Pn/5Tbgs7vFzI480AQKht9htbVv7CTomWNswgoe/G9TtSeo5s221ped3bKluo1FMDsknZmpKD4KjWOn7Yk7ZLlUFTCuu/Uoy7GHChxsuzyVbKvLkivlOIKmN0mOxsEe6Fk5NxcHPnScE7VvdQv+h/fzpgrPzljp/ZgHPfev1Ec6RyBjDaEDJGIuBSRsy41iy2JlgeJva4tIvtPqPcjIaN1YzA18zChkPmPsY0G1NLPgVXuNI8nIogyjPyhkNlsvsuQe07+1D/SD7i8B5wgRf+GzD+pbxc7BDM5QO/EX/1Jfe3t+IMD0iR+KhNgU+mVyGKReqDDhCG3yOUCrbXGM5U5GotmtnqgbEdD+ANM4jzznQ97Ul8nDci2A3SJfSKR3FS98KZhLVSkaCg31C6W1QNyGpgsp1sKer2Io2RW5ylYh6QBGt/4X4Knp9OAR+FllbstNbMiO52ewTWadGWTKYewzPFST+Y7oXPyqePbik9lBvsFrZU6IM7ynglVyIpOFalAQ0dL2ij/9zdL+i5m0nELR52BLUb0KaNvcbxrM9VxKf7C5NNMLmBSIKiwNt6b3cwUzJvSH5Ba6nUneW2U6PaX5Par1H54Cv/xet95/xE0k/zIGhlO8VtEziK3w/QKXJ/ybCSVapYkEKAFPZQJkrNFRuF6p6Ti/9vtrOp5/wj3sxqPPNds5LjJZuIyM+uirK4Lnt5VYSX50WAzq7oCsJnOWoygiI40CkEhDmZXc/CBXUawLnhem373c7TpAHSvSnzBlMr/qJTu68tFEI//i8NcveuBDEEfiYuLJD687GsT9bHF/Op/UVBMm4JdnVpGFHROiIzLw+rkZsfyI+tEcSDFvqWmFLTJzQfhZRv3D7Rj144TUCbLo5mxqaGq1u7ZBiLqY1JwY75bmrWRUBIzl8czwsoDyBD96GXAHIlFZoZldqCu5/Aq0OMUMT55hEfzDSwW6CEAWfV0EEbZqEsNFEXLwiQoHTL69Vh5XKH22hVC8Aj3Mhg+N+8AOWLcLFqb//8fDlwOaPH2bbjdyU3rq06wFDusUN0ZtF7AAAAAABWec2WNltxLFTgQBgCIO173A4+bPVRU2D1pLD2mSBraskde3wxe7Y1fsbaLNLyGbQZQ2a71uyeWsTpk6IeVe+ahKm0MB2O5a/F29KraeZb0ZXpncPp3+i9dJ+bngRz4RPgVl1vQcclNyV+dme+O0BUsLeK/cp/ooKH2G5FjdTKZlFXhl8lY1D9w70ikR11iJrJxM3v7B4hxXTxmD7NRBw95cvFyrVAsyzCmkwLftWw7QRXnl3Fn4hSAXUJIWPRF2/eQn9WHLYUHs0HrNSP66y0S2PfXyoeLlxySVTwK89M3TnXF0pKENAIn9ZEYGLxKnuVFcc3BPLKMzRFLzzIcE5/aLD/6rSzjsU+dEDqeRPa9q0PTbOImP/t1WRvKTdXfaFavQBSK1fRZsymNJgkRXwx9K0YgIsGzbb7OwRS+j6PMLirAphR4x5tsUmuKabSTldjp0tKL3iYvwAlJQuNyS5wETPP6qF+Z6KtMWMXNVffYXVm77zHRefgDd0/f7UI5DseNwXI+YvnOIUoavCYlJjcapQ7KAkdk8Q87WXFPHx5w9RONalxf207t7RrrI3fE5pi2zWmJemtIrYY27xvNs6nlICHb5L2Knk3yGgFYy9Gf95u552pgPMsZc+MS5Shu63Aaz4Y809tCuQoQsIIGdl4DIEFL+I5JY27YNDGAmNhi+1uiL3OHKc1/X7Efiu3PYO4cLGU8BXmOtQkA13Y9vgQRQikVMfuOlCeYnzWViNmaxK7kiyR/eTyHSKNb8D4tPJEbCXYUcpZCj/Xcv1oBltAYLRdzm8SrAFq/3dl9dO0QjOrxQDqnRjcsa117gswg3bZbvlDM6FJVzKX2Z8i9uQge7WuhItCnkEgeKjONPnUI0LVMH2Yn2SX8ku+OCBvjxpJ/UzZ26uz2oDUsWH5YMTCQ2los0cBZFFdYaTnJgKsSIU8w0lBUBJ1K7Vm1JAejBoP/o1bwWOaKobcWy4GWUfyAtLNWgGseUyxm1cULeZ2hlNtASEmSurRTeNxp8+CnGfPrMVV+dofwlGWZsITcwbzv32KMkNSDo2hukFNM7fZ77CsO/AKefgVfzO9B5cjEzXYN6bGTeodYPnH59w8Tf/i92s6PpxtFPB6taDJxfEB70AAAAAAAAAjsf/wrT80igRH2QR3ade18XcIMJmWGGr5we2/y9qXNPakeG0COq5KA+DmzcaySYPUbAqirJ/0X1szDgOcHxOdT5xQDYmUO3+y9zA88elndHzjHlLfpWlRpvhwxajnsuDbm493wtoAbD0tydGCq6NScTCiZFGdhdPwvGmlHswkIFS7zwm6vQBiAP/lhNV2LJBBINs0U+AmjPg1Zgo9HIfU1Lnx3ZYDWQ+Z0ufLB36zFFU+xluNx///NxdiVcUcN7g/FX2pCEAAAAAAAAAAAAAAEVYSUa6AAAARXhpZgAASUkqAAgAAAAGABIBAwABAAAAAQAAABoBBQABAAAAVgAAABsBBQABAAAAXgAAACgBAwABAAAAAgAAABMCAwABAAAAAQAAAGmHBAABAAAAZgAAAAAAAADfkwQA6AMAAN+TBADoAwAABgAAkAcABAAAADAyMTABkQcABAAAAAECAwAAoAcABAAAADAxMDABoAMAAQAAAP//AAACoAQAAQAAABUCAAADoAQAAQAAAFoBAAAAAAAA;" vertex="1" parent="1">
          <mxGeometry x="48.79" y="180" width="92.43" height="60" as="geometry" />
        </mxCell>
        <mxCell id="32aNe6h-Z7KqoS8JLjo7-138" value="" style="endArrow=none;html=1;rounded=0;entryX=0.5;entryY=1;entryDx=0;entryDy=0;" edge="1" parent="1" source="32aNe6h-Z7KqoS8JLjo7-139" target="32aNe6h-Z7KqoS8JLjo7-136">
          <mxGeometry width="50" height="50" relative="1" as="geometry">
            <mxPoint x="640" y="360" as="sourcePoint" />
            <mxPoint x="710" y="380" as="targetPoint" />
          </mxGeometry>
        </mxCell>
        <mxCell id="32aNe6h-Z7KqoS8JLjo7-140" value="" style="endArrow=none;html=1;rounded=0;entryX=0.5;entryY=1;entryDx=0;entryDy=0;" edge="1" parent="1" target="32aNe6h-Z7KqoS8JLjo7-139">
          <mxGeometry width="50" height="50" relative="1" as="geometry">
            <mxPoint x="640" y="360" as="sourcePoint" />
            <mxPoint x="640" y="280" as="targetPoint" />
          </mxGeometry>
        </mxCell>
        <mxCell id="32aNe6h-Z7KqoS8JLjo7-139" value="" style="verticalLabelPosition=bottom;verticalAlign=top;html=1;shape=mxgraph.basic.acute_triangle;dx=0.5;direction=west;" vertex="1" parent="1">
          <mxGeometry x="598.75" y="350" width="82.5" height="40" as="geometry" />
        </mxCell>
        <mxCell id="32aNe6h-Z7KqoS8JLjo7-155" value="" style="group;fillColor=light-dark(transparent,#000000);" vertex="1" connectable="0" parent="1">
          <mxGeometry x="538.75" y="90" width="60" height="70" as="geometry" />
        </mxCell>
        <mxCell id="32aNe6h-Z7KqoS8JLjo7-143" value="" style="ellipse;whiteSpace=wrap;html=1;aspect=fixed;fillColor=light-dark(#FFFFFF,#FF3B37);" vertex="1" parent="32aNe6h-Z7KqoS8JLjo7-155">
          <mxGeometry x="20" y="30" width="20" height="20" as="geometry" />
        </mxCell>
        <mxCell id="32aNe6h-Z7KqoS8JLjo7-144" value="" style="endArrow=none;html=1;rounded=0;entryX=0.5;entryY=1;entryDx=0;entryDy=0;" edge="1" parent="32aNe6h-Z7KqoS8JLjo7-155" target="32aNe6h-Z7KqoS8JLjo7-143">
          <mxGeometry width="50" height="50" relative="1" as="geometry">
            <mxPoint x="30" y="70" as="sourcePoint" />
            <mxPoint x="240" y="60" as="targetPoint" />
          </mxGeometry>
        </mxCell>
        <mxCell id="32aNe6h-Z7KqoS8JLjo7-147" value="Codigo" style="text;html=1;align=center;verticalAlign=middle;whiteSpace=wrap;rounded=0;" vertex="1" parent="32aNe6h-Z7KqoS8JLjo7-155">
          <mxGeometry width="60" height="30" as="geometry" />
        </mxCell>
        <mxCell id="32aNe6h-Z7KqoS8JLjo7-156" value="" style="group" vertex="1" connectable="0" parent="1">
          <mxGeometry x="129.07999999999998" y="650" width="714.25" height="281" as="geometry" />
        </mxCell>
        <mxCell id="32aNe6h-Z7KqoS8JLjo7-157" value="" style="ellipse;whiteSpace=wrap;html=1;aspect=fixed;fillColor=light-dark(#FFFFFF,#FF3B37);" vertex="1" parent="32aNe6h-Z7KqoS8JLjo7-156">
          <mxGeometry x="20" y="30" width="20" height="20" as="geometry" />
        </mxCell>
        <mxCell id="32aNe6h-Z7KqoS8JLjo7-158" value="" style="endArrow=none;html=1;rounded=0;entryX=0.5;entryY=1;entryDx=0;entryDy=0;" edge="1" parent="32aNe6h-Z7KqoS8JLjo7-156" target="32aNe6h-Z7KqoS8JLjo7-157">
          <mxGeometry width="50" height="50" relative="1" as="geometry">
            <mxPoint x="30" y="70" as="sourcePoint" />
            <mxPoint x="240" y="60" as="targetPoint" />
          </mxGeometry>
        </mxCell>
        <mxCell id="32aNe6h-Z7KqoS8JLjo7-159" value="Nombre" style="text;html=1;align=center;verticalAlign=middle;whiteSpace=wrap;rounded=0;" vertex="1" parent="32aNe6h-Z7KqoS8JLjo7-156">
          <mxGeometry width="60" height="30" as="geometry" />
        </mxCell>
        <mxCell id="32aNe6h-Z7KqoS8JLjo7-146" value="" style="shape=image;verticalLabelPosition=bottom;labelBackgroundColor=default;verticalAlign=top;aspect=fixed;imageAspect=0;image=data:image/png,iVBORw0KGgoAAAANSUhEUgAAAyMAAAFLCAYAAADF61PbAAAgAElEQVR4Xu29a6wdyVn3W2aSyQXIBy4CIaEz9gmBbTwQ/AUJAW8kPhzNNkHgwwgye2yI5hAQvAGC7eESM8AwEWjGm1sSLoEBXg/b+TBg4AzeoyMuIiAkEDA54JG3FBJvAyIChYTbyWVAwz7dvVZ1V1c91fX0Wt2rV6/++dWrMPbq6qd+z1NVz79ufewo+2P4AwEIQAACEIAABCAAAQiIBP77v//bvPjii8W/vfDCC8X/3rx50zz44IMQW5LAMcTIkgR5HAIQgAAEIAABCEBgowkgRvpzL2KkP7aUDAEIQAACEIAABCCwAQQQI/05ETHSH1tKhgAEIAABCEAAAhDYAAKIkf6ciBjpjy0lQwACEIAABCAAAQhsAAHESH9ORIz0x5aSIQABCEAAAhCAAAQ2gABipD8nIkb6Y0vJEIAABCAAAQhAAAIbQAAx0p8TESP9saVkCEAAAhCAAAQgAIENIIAY6c+JiJH+2FIyBCAAAQhAAAIQgMAGEECM9OdExEh/bCkZAhCAAAQgAAEIQGADCCBG+nMiYqQ/tpQMAQhAAAIQgAAEILABBBAj/TkRMdIfW0qGAAQgAAEIQAACENgAAoiR/pyIGOmPLSVDAAIQgAAEIAABCGwAAcRIf05EjPTHlpIhAAEIQAACEIAABDaAAGKkPyciRvpjS8kQgAAEIAABCEAAAhtAADHSnxMRI/2xpWQIQAACEIAABCAAgQ0ggBjpz4mIkf7YUjIEIAABCEAAAhCAwAYQmJIY+YIv+ALz1re+1bzyla80//RP/2R+4Ad+wPzrv/5rzYvf8i3fYl73uteZZ555pvj/H/3oR4t//47v+A7zZV/2Zeb973+/+bmf+znzj//4j+VzX/d1X2e++qu/2vzbv/2befvb324ODw/NPffcYxAjG9BAqAIEIAABCEAAAhCAQH8EpiRGvumbvslcunTJvOIVrzCf+MQnzDd+4zeaW7dumRdffLEE/Oijj5pcXPzyL/+yefLJJ82///u/F//29V//9ebChQvmZS97mXnjG99obt68aXJ2+Z+f//mfLwTMb/zGb5h3vvOd5oMf/GAhThAj/cUtJUMAAhCAAAQgAAEIbACBKYmR3/zN3zSnTp0yf/d3f2c+93M/1/z4j/+4efe7320+/vGPJ8VIvtLxi7/4i+bEiRPmLW95i/nd3/3d4rnP+qzPMr/wC79g7r33XvN93/d95saNG+ZjH/uYeeKJJxAjG9A+qAIEIAABCEAAAhCAQI8EpiJGjh8/bq5fv27+67/+qxAg+erG888/X2y/+pd/+ZekGLn77rvNO97xDvPlX/7l5td+7dcKYfKhD32oWBH5wR/8QZP/+/d8z/eYv/zLvzSf/dmfbX7mZ34GMdJj3FI0BCAAAQhAAAIQgMAGEJiKGPnmb/5mc/HiRfMHf/AH5ld/9VfNu971LvPSl77UfMM3fIN53/veV265im3Tyl19/vx58+3f/u3mH/7hH8zDDz9sPvCBD5jv/M7vNOfOnTN/9Ed/ZH7qp37K/P3f/705c+ZMsaWLbVob0ECoAgQgAAEIQAACEIBAfwSmIEZy0XHt2jXzxV/8xcWh9d/7vd8zv/Irv2K+8Au/0PzQD/2Q+a3f+q1yq1aTGPn8z//84oB6vjUrFyV//dd/bXZ3d81XfMVXmPy5/MB7fhblR3/0Rzkz0l/IUjIEIAABCEAAAhCAwKYQmIIY+bzP+7zicPknf/Inm/vuu6+4ESs/yP7ggw+aP/3TPzXf+73faz7ykY8ULm0SI/nB9/yAen6r1mOPPVYcYn/b295mPvMzP9O8+c1vLrZofc7nfE6xQvLa176WlZFNaSTUAwIQgAAEIAABCECgHwJTECO56Pj+7/9+8/KXv9z89E//dHHA/Iu+6IvMV33VVxUrGfn2q4ODg2KrVpMYyT2QnzHJt3z9/u//frFNa2dnp7iRKz8Mnx+M397eLs6O5GdU2KbVT8xSKgQgAAEIQAACEIDAhhDYdDHykpe8xPzSL/1SsZpx1113iV774R/+YfPrv/7rxVatlBj50i/9UvNjP/ZjhXDJv1GSr7r8xE/8RHE4Phc5jzzyiPmar/ka86pXvQoxsiFthGpAAAIQgAAEIAABCPREYNPFSH6F7+/8zu+YT/mUTykOr//Hf/xHSfI1r3lNISb+4i/+wnzXd32X+ed//udSjPzJn/yJec973lMIjPzP3/zN3xTbu/KtXvnh9/z8SS5u8u+Q5Kslf/Znf2Y+4zM+w/zsz/5ssUXrz//8zxEjPcUsxUIAAhCAAAQgAAEIbAiBTRcj+YcO85uvXnjhBfO1X/u1xW1XR0dHhffe8IY3FOdFPvVTP7VYzci3auWrJPlHD/OvtLt/8g8b5iss+TXA+epJ/vv8uT/+4z82P/IjP1J8dT3fopWfRfm0T/s0893f/d2IkQ1pI1QDAhCAAAQgAAEIQKAnApsuRnIhcvLkSXP79m1z5cqVcqUjx/nqV7+6+IBhLiryFY3nnnuuECj5t0TyL627f/LVlWeffbZYWfnKr/xKc/bs2UJ0/PZv/3bxAcR8hSS/4jd/9sMf/nDxHRLOjPQUtBQLAQhAAAIQgAAEILAZBDZdjAzpJcTIkPR5NwQgAAEIQAACEIDA2hNAjPTnIsRIf2wpGQIQgAAEIAABCEBgAwggRvpzImKkP7aUDAEIQAACEIAABCCwAQQQI/05ETHSH1tKhgAEIAABCEAAAhDYAAKIkf6ciBjpjy0lQwACEIAABCAAAQhsAAHESH9ORIz0x5aSIQABCEAAAhCAAAQ2gABipD8nIkb6Y0vJUyPw1Blz7Px+Vuvj5sLN7J7uU1MDQH0hAAEIQAACm0kAMdKfX1cqRq5tHzM7z0Yqc88Fc+vwitnK/rn83X175mj/gf5q75e8UDJ5zZw5tmOKFPTSLXP78bwGy/3RcTowF4+fNLt3pHeFybCuzGa73TK2rx6ZG+eWq6cpeTvlrNrnS1ah9vhC8bO4AV34dPG3d/zk8xfNiXt3zWFWrC62nPgfc8x0jJHiIAABCECgHwKIkX645qWuoRhxkgxHoPSHoCr54OET5uQTeTqkTYiyHzpJlOkoKdIlmU1iZFYnN6nTlSlTlp7VJYwxrzXb3pWoW0XMIEa6oFzFgz6uqkkAs+J+oosaUwYEIAABCIyLAGKkP38NJEa2zd7RDRNb82BlxK4gNXGKiDZXHEmrTaaZfRhq86QvF1pv2JtvQ2oh1oTYdcVNXXjM6nT9/m5WmKRmUwnOthwUjXCwlZEe6qKoblc/sT6RRWhs5ZGVka74Uw4EIAABCKQJIEbSjBb9xVqKkUUrsynPVcn6AmIkgyA9ryszQdDZVqWfwfbK7GElqY3fESNtaK3Db7vfBrkOtcIGCEAAAhAYFwHESH/+WksxEl0ZcRPZORNpZj0/R7F99ZbZemR+pqK2jSPcIlQm1g0z2/5Wpeq9DcmSYK9mS4lOOMS3s5XPd7Iy4gRfB2KkEgPKQ96tfH5krtysttrllleiKbY1zNph/Zj/92Pm4N7ZOaBy6510vsU/qN4ifjLLwtVB/x2JbX+6OHHrdducftg9tyX7INyW59lq7czj69EDc7I4tK9hnf0o0RZr/y4ytz75kurMlM8piJm6/eKWRWGrl7ttM6/faLcP9jd+UDIEIACByRBAjPTn6oHEiF+helIkipFYYuImjCaScJaJhrPPvGbCPFkRk0ltEltPVvxEpl7j5kQ8fr7DfU6xTctJ0nRlJgKtAzGiS6Dndizj87IqlpnejzUKBUNTXlIQEnJ80ip+ivS2vHUrFi9NK1A6n8Zi3tbETdSVlyJE/DKzNfG+ZFssZM1MqC0iRhqfyTaGNsWUKN5djysFdH/9NSVDAAIQgMBABBAj/YEfiRipkqTa7GQ5AyonnP5MZpW8uUlFnjztmZ1a8iMnifVZ9jPGPJNf3yqsjMS2Iim3KOmSzMQBdm+mV1fmOomRJX3usHbjIL5Nq55E10VAbstFc/rQPeck+F0SI+XfRWbn54JREuD5310+FT8/o/NppF6SsFTaWk/oI6sm7sqPu5IyvzGv9ENkpSS98iidGYkcas/f/+6d2c18eVw8fNrcdm/pC/wmxd7s7w4e7eAWuf76c0qGAAQgAIGeCCBGegKbFTuQGGl5gF3a7uQxmSWPTYdaFQdehWRS2vJUf7UyKZ0/lC5PPvMRhkCTGAn5tlqRiMXbKldGlva5LGY0YkTejhPnXf6+KX5iTOfJuHFuchO3cAnP63wa20ZY/b0VXo03ruXvt8Kh6aC+JGgCMZK+Ca66ma7FAXbt9cDR2KomIWosuK2rvxGIkiEAAQiMhABipD9HTUiMKA7CNsyQxq/tDcttOiTdixiRtr5EV0aWuHmpUzGS2PKyVmKkeetRF2Kk9n2dsr1rt/M1+XTFYsTEWVUirycx0iSSLNOmbVq1M0CSjUu0nf76cEqGAAQgAIEVEECM9Ad5dGKk+RanptUPJ0mKHQxuEiPR2dEmMdLw8cGG2VbdjHfkzEhEMOjKTARaB2LE3eLTeCBYO8vtnhOq+bW7lRH50L1uRUwjPgPqbsK8dJwsIEZSKwGNSb8sRmIXTaS/zdNiZSQZn6k2I4u/2nmejr4l1F+XTskQgAAEINAHAcRIH1RnZY5DjLizrX6iVCQgZn4zUfNWrPiZkctm62Z2/uO9eVnFt9TFg8X+zUyz/eMtzow4yVJTIq4TDrHbtOR987oylxAjkTMaYYn1GWfxXI/xDo0v5POUGPETz/jKmbjSJflSSNLjH9Kc2We/qeKfD9FcQazzqV6MaG2tBGWYvJdlqG8Ck/1gim2XefTEJhFanhl5ZMvcOnzIPJkxz2/bc0VQ2C+E50MCUZkUPv112pQMAQhAAAKrJ4AY6Y/5QGJEqJB0k42T0DTeTlU+mzgXktorLoiRWjLkme3fHuQm1s3775VnZiS/S3X1knVpJr/RnsaZ8MTtSNZH7mx+avY4tQVr/vxyPo8cgBe26TT5sXBBwt6mbVpN8ZMXnTyv0cBS51O9GNHaqhIjQuzKl09IQR65Nc7+tIhXWVhEY0Y8m+O/O3XzWnVjnvservztb4CiZAhAAALrQgAx0p8nRiNGoklh7LsF0SQuTK7T3xkJ94+nb/sxRkyMUol6Phec3aK082zE6QoxIs0m68qU3qkUI+qVkeodok3Jb0Zkz6t8HhEj2eN1v/jfGYl8T8IXMZmd2R1shZ+axcisvlJd61sOQ86pJFfn0zZiRGlr4mxGk13R7VplWEhbpTw2RYw0fGckEJzN3xnZvrpnzPn8uzLOuwUBWvMXKyP9jUqUDAEIQGANCSBG+nPKSsWIthrSNafaZ/kdBCAwHAF5m1ZsS+FwdvJmCEAAAhCAQBsCiJE2tNr9dg3FiOKgebs68msIQGAlBGLbJBXXaq/EPl4CAQhAAAIQWIwAYmQxbpqn1kqM+Nuamm/O0lSP30AAAqsk0HxWii+Yr9IXvAsCEIAABLojgBjpjqVf0tqKkdR++f6QUDIEILAMAVGQpK4LXuaFPAsBCEAAAhDomQBipD/AayVG+qsmJUMAAhCAAAQgAAEIQGAxAoiRxbhpnkKMaCjxGwhAAAIQgAAEIACByRJAjPTnesRIf2wpGQIQgAAEIAABCEBgAwggRvpzImKkP7aUDAEIQAACEIAABCCwAQQQI/05ETHSH1tKhgAEIAABCEAAAhDYAAKIkf6ciBjpjy0lQwACEIAABCAAAQhsAAHESH9ORIz0x5aSIQABCEAAAhCAAAQ2gABipD8nIkb6Y0vJEIAABCAAAQhAAAIbQAAx0p8TESP9saVkCEAAAhCAAAQgAIENIIAY6c+JiJH+2FIyBCAAAQhAAAIQgMAGEECM9OdExEh/bCkZAhCAAAQgAAEIQGADCCBG+nMiYqQ/tpQMAQhAAAIQgAAEILABBBAj/TkRMdIfW0qGAAQgAAEIQAACENgAAlox8kmf9Enmrrvu2oAar64KiJHVseZNEIAABCAAAQhAAAIjJJASIy996UvNy172MnN0dDTC2g1rMmJkWP68HQIQgAAEIAABCEBgzQk0iZFXvOIVJl8R4c9iBBAji3HjKQhAAAIQgAAEIACBiRCIiZE3vvGNJl8V4c/iBBAji7PjSQhAAAIQgAAEIACBCRCIiZFv+7ZvM/m/8WdxAoiRxdnxJAQgAAEIQAACEIDABAjExMi3fuu3TqD2/VYRMdIvX0qHAAQgAAEIQAACEBg5gZgYedOb3iTW7H9cuWneYf6nuffie8p//9vD/2Ge/v/eYt73ui8x7/rw/1b8ff671//frzIX/2j23/bP337lFfPvX/NM+Xy8vHeY/6P25AfM253y83+avdf9Xfib2rsFO8N/j5fX9L7w34xBjIy8cWA+BCAAAQhAAAIQgEC/BNqIkb/99DeZ9/7Sa8z7M5Oeee395j3HZ0JDEiO+6LC1cEVK6/Leacz//JTZe4tn//DN5v3fUQke6e+0YkRTnl/PT3/Tb5k/vG/fvO61bzXPmfOBIEOM9Bu7lA4BCEAAAhCAAAQgMHICbcRInnw/aR7K/t+Txf9+7bs+HBcjxSrE680zc/FQiZbq79qXV62+5KLmLe97XWmDdUMhgt7yvkIgfHgulsp/a1gZ0ZTnCw5XnLz1LxAjI28KmA8BCEAAAhCAAAQgsGoCWjHyt4efbt72/z5pzP/1Jeat5m3ZCokxD80TfmllJK+Hn+DnQuG9X/BjhYBoW16xCvGanyy2d8XeJwkezcqItryr3uoHYmTV0cr7IAABCEAAAhCAAAQ2ioBajBRbtGYC5DlzuhQm+RmRWDLvrlIEzyTLq58Z+cDbq1WQ2Zaq15ifdFZdNKsfUTuV5fmrH+E2rbrNbNPaqKZCZSAAAQhAAAIQgAAEuiagFSN2S5XdmuX+dzTJb1hNaVOem/TnW6+0Kxn2TEtKqGjLm62MuILj/6nOsAhbwBAjXUcr5UEAAhCAAAQgAAEIbBQBjRiRboqaQZgl4/72JReQdC5kkfLcW7dmW7z+0Gw/282ZEW150iH1JqGDGNmopkJlIAABCEAAAhCAAAS6JqASI8KhcJvAv+YnX2Xu/1/h4e0ySS9v4Hq1eV923qTY1rVAef7qhXj7VV7uO18dXAGcWhnJ/11TXnoFpX69MWKk62ilPAhAAAIQgAAEIACBjSKgESOxm6bsofJX/Z/G275kjD3jYUXLmz9QfZtEV149sc+hF+978/uD633/99Ij1bYpyUnSikx4FuXNJlZeWoxwZmSjGgeVgQAEIAABCEAAAhDolwBfYO+PLysj/bGlZAhAAAIQgAAEIACBDSCAGOnPiYiR/thSMgQgAAEIQAACEIDABhCIiZGHHnrIvOQlL9mAGg5XBcTIcOx5MwQgAAEIQAACEIDACAhIYuSv/uqvzPnz580rX/lKc+zYsRHUYj1NRIysp1+wCgIQgAAEIAABCEBgTQjEVkYefPDBQojcfffdrJAs6CvEyILgeAwCEIAABCAAAQhAYBoEJDHyoQ99yHzwgx80H/nIR6YBoadaIkZ6AkuxEIAABCAAAQhAAAKbQUASI//5n/9pPvGJTxQVfOGFF4r/zf87//8f+9jHzMc//vHi7/L/zf/d/nf+dx/96EdLMPlvp/wHMTJl71N3CEAAAhCAAAQgAIEkgVyM5H9efPHFUnjkYsQKEF+M5ILECg4rQpoEiTVgisIEMZIMP34AAQhAAAIQgAAEIDBlAq4YyTnkwiIlRuwzuRixqyOWoRUo7grJVPkiRqbqeeoNAQhAAAIQgAAEIKAiIImR/EG7VcuujNiVErtVK/9vf7uWL0hcA6YoThAjqhDkRxCAAAQgAAEIQAACUyWQEiOWSy5K7LkRe54kf9YVJPlvXfHiniWZIl/EyBS9Tp0hAAEIQAACEIAABFoRiB1it6shVmRYEeL+rytI3NUSX5i0MmhDfowY2RBHUg0IQAACEIAABCAAgf4ISGIkf5t7q5YvSKxQyYWJL0ispayMHB0d9ec2SoYABCAAAQhAAAIQgMD4CbhixF3RsAfZrfBwb9aytfZXS9zD7eMns1wNWBlZjh9PQwACEIAABCAAAQhMgEDs3Ehe9ZggsQLFFyWx/87/3r5nAkiLKiJGpuJp6gkBCEAAAhCAAAQgsDABX4zkBbkH0V1RYldC3N+4f9ckRhY2cKQPIkZG6jjMhgAEIAABCEAAAhBYLYFlBYlvrSRQVluj4d+GGBneB1gAAQhAAAIQgAAEIDACAhox4q6QNK2A+KsqI6h+LyYiRnrBSqEQgAAEIAABCEAAAptGwD3P8eKLLwbVcwWGe46EFZF4JCBGNq2VUB8IQAACEIAABCAAgd4ItBEkrhFN4sRdQXn5y19efDgx/9/8j/2/m/7Obvdyn23zd23eJdnU5l35866diJHeQpWCIQABCEAAAhCAAAQ2kUBKkOR11mzDygXK3XffXbuNaxN5NdUJMTI1j1NfCEAAAhCAAAQgAIGlCPjX70pbtvwXaMTJUkaN9GHEyEgdh9kQgAAEIAABCEAAAsMSkL4JohEmw1q9Xm9HjKyXP7AGAhCAAAQgAAEIQGBkBDQfKkSkyE5FjIws2DEXAhCAAAQgAAEIQGD9CWgESlMtrHi56667TP5/2//Nn/H/Lv/v/I/7uzZ/1+ZdXb8fMbL+sYyFEIAABCAAAQhAAAIQ2EgCiJGNdCuVggAEIAABCEAAAhCAwPoTQIysv4+wEAIQgAAEIAABCEAAAhtJADGykW49MBePnzTX779lbj++NcIajt3+ESJfB5OfOmOOPbJlbh1eMZ1EbdfltWWUv/+8MXtHN8wDbZ9d+vezNrRrLnTHc2mb1rOAg4dPmJPPP2aO9hfw0kpi7Jo5c+yy2bp521w51Y5hUbenzxID7bDxawhAYMUEECN9An/+ojlx7645dN9x395ig14rO/PBa8fsO++6tn3M7Dx73FxYYEBr9epOfhza30mxFFISmMWDBGS72+TZtgFF3M9s6u79rcrroa0WieATpvs2p2FaCKGD7t+dh4zEah5Kxy+NbQJEEG0Fu32jqUurGFu0/5nbs331yNw4166Q5e2b87nTXbsMatCCd7va82sIQGAsBBAjfXpq3slKr9AMdIubFhMjxiwyoC1ux6JPIkYWJad7ziYYYmQulsDGEiabuN6TnqFfPnGq16dVeT201d7FSJTprP2YBZJXVfw0sDIK0em+o5WPVMa1/VFcjGjqshL710KM9DiRZeOpZey08zQrhe14Vb9eSYwvahzPbQwBxEifrhQHEZsI9ti5m7En82O3v8+g6qLsHgbmJRImW6OuB71W5fXQVnsTI6kQeOqauXbugf62hnXg6758nkIT/vtybaFVjLU3bvbEErxXYt+i9Vrpc8v5eaWmrtnLiKE1c8iGmjMxMeLPCPe49NwwiMySlMMeVynGnsyP3f517y16GJiXSJj6SkxbDaIR+5dpq4OJkb7DrwNf9+Xz9lVfri20irH2xiFGFmUWPLecnzszY4QFrSTGR8gFk7slMB0xEt3n3OMKRcsER9zH723FiO31r2+/CpP5IDGK8SiXyudlBPHmCbh5OVuXLpiDJ+z5mCaRF9kiVFui14oRTVnG2ITSrYrLS/73PWPO17e6zH63FZypEDvrCF/JTwcZu62M3b5jYLGN7/yTwZkj0c8pHy06MIu+nRdW+ivigzJuJV9Kz2yb7fv2zX7tzIgyBo22vIbOs4e2GooRbX2MEdu53za9bS1t+gYp5oxiK512pr5sU1K7Nlmf+5tnzfWv887TZYXXtq+K28G8/loVo6X0mZ2lc8Pgnizusr/Zdw/6z8s0tfMvLWIsto1NsQ1J7Ivuyyx8dt+bvNL1fapEUrDX9YNURvzMWbUVWN1fqnlnjpNi/uCCubC1a3ZrZ+CcOIn4w+1LNWNv2HvIMVFeWGFj098uKfQ1xfvNnrl16nIxURkbq+x5rS1FmdnIN7vE4o5nuccwOj5+iXDmVdVGQz/Z1T3N1sduU1xKGwuBiYiRpj3yuat6WiGREpzIHnpxBjbopPN6XDSnD93beeYJTi2RUIgRP0J9W/N3P3za3HZvmJEOGjpJt+YcjHiQPuCkEyOqssSBzqm85A9n8ApFi0aMSD6xCaYba05yGknuq/cLZWp9tKQYyYfGyreRbYbR2fJYLB7WEs8qGXD4KOtn206YQLVo2523VSuCnQPsLetTE575s6835kZx05iOaRZx8+Q7FXOV+FGdKVOujPh9mrRSFE2WxUP6wuy22P/IMWpjrKqjMy64/afQZ6hjLNK/h+8WUoQWfZGq78tekRYj6b42KCPKp35ZwzJipF39vHYunkGJr4zoxl5BiqQuqGgrRgoxJbVVr0/MLsXRiBEVw9T42BRDbWJ9JeeCxpJ2Y6dEYBpipOH2FwtFNQi3jSH1DFm8oyw6lGzmp+m603DAaStG0gPSrOrC71ocUBafL8qd13/L3jSmsSf2G6+sRGcb3UojJFzqwTVxmLsaSCJ1iDyfTiwiPoqJkTthQNcEZYydZJ9ajCRiPXmbls9s2fLmDHpoq7ptWvr6VN5q8UwwgRCJOUVSUr4/xiqY1LHJfpZM3dwyl7Mkqr7aEE+Wm9ulc0uYOkYT/UXjyog+xuI+lyco3Bao74uUfV9PYkS0U0i81f1l4MNl6yf5K+bDxcfeZPtuLUbCSdHYjoa0GFEyVLT72LizTKy3TaX4/eYTmIYYiQ6elYP7FCO27HL2N9gOEdu+UUqlxutWlxUj4gyKGPtxMeInGeLjKVHYuLXHK1FdVmT2c15cNMFfQoxIy96u9VXCP7AYSX2DIjZQSYOsWozEheZiYqtFeULMlO3es7+LtppMVkSBv4gQb3gmWGGI/Xb29wd2a1ILVo3DpNv3CtvAYj5v2gaUv6/0mzZGo0lXfLWl6tP0MRaPYQct1JYAACAASURBVEeYRb47o+6L1H2fZmXE3RIo7xAI7Cp86l0bvUR/abcelbw7qF84iRcTHUuMveKqnNMaOhAjweUF2jLVDJvHx2J6K3Ll+jKxvvmpNTVsS2AaYiTVMPM9zH18fyPaQde3qDTd21841B3EVbOSLVZGpK1XtURdCCl3z6liZiU9ozr/RWJPfM2SlMBs3BdbDbrqBCB7uXamT51IxW49a7EyEn1X4/505WFObaKXO6YnMZKunz5RLPctO4FUCsMe2mp8W1JDm1K1J6/Ojc/4fJRiRGhfTaziA4+T7AgxKbe/1LZap7/WxuhKxEhzu0qJbXVf1KLvS71T7pvr42F0ssuOm++dfZfFP3Ok7S8DMdJB/dRiJJUbJM9RebEqjI3pVYwG0ej3S1ox0oJhHgP1CbS6KG1so5EJLXXctc1Y+f3GEpiGGCnVfcSPyQ5nQf+LCZq0XK+ZDc1sCGY5Z3YtvjLSch9twzatNisj6d8qeKiSNsFv3t5VdQLQQozoZsQLzwUfpywsVooRca+z6lrncYgRXf1aiJGmZtx1Wy3jpdpHv2x9KvO1AqPqM9Kz/N7KSGtW8gO2LRy/59Ac3gknfdrPunrvWSsx0rQSkW5z6r6oRd/XOim0Y4wzJsorI1lcXzowu/awtSA0FxYjHdRPLUZU/aVu/LcTJ/6q3SBipAXDWu288VHOL2J5hy0pHes6ovxqSgQmI0aiN0v0dXi9IakMk5L0En6bJFVKcqUEuSlplgexJbdp2Y4/Kf4UYkRdVtic3YHKRK5ZDgYWIbmcd8nhIeGG1aa6NcuJEbWPAgTKwUKb6DXEehiLsVi32yVSq1Y+M315jR17RAAu3FaFeNH5S9MXaBlUM57BRQhB8tiDGKnFz3tn7US8HTC2V15x/bk6RqVJoEqsHTYeYNfHmCw4nfc0rFjGng37okhdhABvLUbKuK0u6vDLCBP9ZiFa33UQtvNgZaRF394oZmtnLRNnRjr5wry81VE+J1X/ALE03lRCIL0SuEyM+N7z/RtjvEysTynJpq46AhMSI3Mg5bJsT1uzXO6xrSvSCoedkfAG66LBP/+YOcpvtYrOWuUvFW7hcAa+2EG42CqF7WiC8w35qxbdplUOdNn9TMIVjZdPZdfZPr6V/UojRpyl5aaycq6PbFUXAPjsy3iw/OrL7sGNRtkh3Cpxcfcbu/yrMsKreC+brXJL4HJiRO2jVYiRyKpdXBg7MVDbKlFx1Nav3GJg4yBS3iJiRFyN1LRVQYy0rk/ZF/iJlBA3kk2incptWk2wolvy3IeEBF4Q6dGEprwJTLrK98A8Zs9dqMVIdTbC325WWK28Tavst6IxZvsE127p7wTALfqiIObnxeWJY9WPKs6MFO90eApCQF4ZqV2QPHu7P8kUjFeR/lLw4bL1kwTTrB7CuK9sz1LS7rKOT1xU77SioRixnet5pb+XGdh2lS5TxTA1PjpjdniutkWsCysuuhSVX02FwPTEyCo9Gx20ww6lMCuyz7PWCfi/yQaAvfuvm53a9y8UZ0YUZ0/cDjI37/ilPXP26R2zW956lf3lAsvB8gFvYfBe8F7+zNLqDJC0J9gfNAWmtx49MCezfdB+B+zbnic2N8wZ4fsjkX3viSuY3Tjw3y3NUKl8FBMjd6TGkJ6Fi911X7MlcRlBaHcmRO+9mO09N7XLGrT105YXbf49tFXNmRGxTTkJQGWvon1IbTqyArLfwcqIyHJerjzTK/V7boLqfWekFCTemzSTIeLe+rBN5m3sys1swufps8GERWxG21pTiBohZqsrlV27ldfHS33R4WlzMVtVMt63JdL9qEKMiIwTZwYaRKV/Tb6qv4yMIcvUT1y98caCxnF17rqmi20k+4Lr7f3xJ+8XnzHmjHc9b9m3XzVmJz9/Y/9IuwiUZeZFJBlqxkcvRup1rLffmdlCrCNGVpl5jvJdiJFRug2jeyegmv3t3QpeAAEIQGCNCMwFnTshZa0r+kzvlq01snydTVlkO9061wfbINCWAGKkLTF+Pw0CiJFp+JlaQgACLQh0dGFEizdO4aeIkSl4mTo2EUCMEB8QkAggRogLCEAAAgEBeevP7Ge9fK9rAj5AjEzAyVSxkQBihACBgEggnwF0D5uDCQIQgAAESgLBgXvYLEqgdlHNooXwHARGTAAxMmLnYToEIAABCEAAAhCAAATGTAAxMmbvYTsEIAABCEAAAhCAAARGTAAxMmLnYToEIAABCEAAAhCAAATGTAAxMmbvYTsEIAABCEAAAhCAAARGTAAxMmLnYToEIAABCEAAAhCAAATGTAAxMmbvYTsEIAABCEAAAhCAAARGTAAxMmLnYToEIAABCEAAAhCAAATGTAAxMmbvYTsEIAABCEAAAhCAAARGTAAxMmLnYToEIAABCEAAAhCAAATGTAAxMmbvYTsEIAABCEAAAhCAAARGTAAxMmLnYToEIAABCEAAAhCAAATGTAAxMmbvYTsEIAABCEAAAhCAAARGTAAxMmLnYToEIAABCEAAAhCAAATGTAAxMmbvYTsEIAABCEAAAhCAAARGTAAxMmLnYToEIAABCEAAAhCAAATGTAAxMmbvYTsEIAABCEAAAhCAAARGTAAxMmLnYToEIAABCEAAAhCAAATGTAAxMmbvYTsEIAABCEAAAhCAAARGTAAxMmLnYToEIAABCEAAAhCAAATGTAAxMmbvYfuGEjgwF4+fNNfvv2VuP761oXVsqtas/gePHpkb59ax+tfMmWOXzdbN2+bKqXWyL7drx+xnJm1fHYrdurJZJz/1bcus/eyaC+bW4RWT7kHWvb31zWsdy5/6GNCnTzasj3rqjDl2fn/APr8bXyFGuuFIKTmBDWkUwztznlTet2eO9h8Y3pxVW/D8RXPi3l1jLq1QjM3feahhPnCcX9s+ZnaePW4uuGLI2m99dU+WiD5jzJmMo6pOXfl4YDZdVWPU5RQ+OKjHR1OFpPY29+PxVbbBUUPv2viJjwFd43TLC/qouXi/s232jm6YdRpxxb6+xmZu+9b4cwXESJ9BP7WyJ5aIzDqKPjqwiQ9EQ4qRPIlPzSavJM7js9uzuKuvfhw8fMKcfMLIAkVTp676qpWw6crYTSxn1neYNitjDWLEaMT5JmIcvE4THwP65B8VI94ET582KMuW+nr30aLff/psesxSvm/InyFGhqS/ae+eWCKCGOkpgIcQI22qspI4b7fVZiZGtoaf2VsJmzbOmthvn7pmrp17oN3s7rq3t4m5cFZdxEhvbt+YPurAXHvKmAfOpTdi9sayw4IRIx3CXHVRswTk0HvtgOp+Yxq5zpOIER2n1r9a9+RoJXGOGGkdNzywGIF1b2+L1WrkTyFGenPgSvrv3qzf2IIRIyN1bSlEasvodu/jQIIk2cirA7Z17N5Wp3k57m+Se5f9PfPFwy4Hy8ZzuLcNoRAYBxfMha1ds5tthan+OGWJ78reZvdXz/9969IFc/BEtme/KGRex8izpraVJjIQCVzqdXRm1FzTk9t0BL9kz+zdf93sOEvAsdl3WZTpeNtzRjXS920b82x2DNvZry4Lb4d5UcCsHgcZ962Me36Qu/yjZeDFg/Te7cy+/cy++iFxTX2V9ol+rrZl1bZkmdn5Gn9KYmZbmziybVDZRjOwWjZ2q4Hf1db5yTEY3zJntyPdMluPZIe177ilh1sndTZkESS0/1jf06Y9qPqV6Fgkx5Zrl7Z+2vZmmrZuSXa67SYSv4ts+dIzVrYtkXHLZ5X1i/q86IseMk/mlwy4cVvre2zbzcaig2wsaorvpvEmr69q3HDBNOQRibNEen/JbW1mReI8nDU12ae37aOcfqMrpiL78D31/ruqf+P2Wz+WfR5iHeYPreH2S8RIdABY439onMlqN6PaaS1TYiS3++HT5rZ7KDvo3BaZEZo/4zXGfDDYe8PsViHxIJhgbzWoOx2G7VAk4SKdGXEER5DIZGWduHmldkuWTeqq5ExgIB6wDn29yGpNuC/VSX4cpq0HGv+QdcDbJqBy51xPtk6Y5x53b6+SDh06Ca3jq9S+21kbaGDuxpUzuLjJtC6+2tgXb8fSACX7pk0cnTHmmYxvLm6SbTTDZeMxySavx0Vz+tA9GBq21/ZxK7MsEy/H/7Z91duiEHt5FMzP45STBw0dZPv2kBeW7lf8V0Zj6907xQUX+vrp21soRoR4lMYhKS4crm1vedMzbtO2AsLlLXSuYBL7jRb1k2KpJuCDPspNwuX6iL5uGm+U40YQ5hHRkWqnen9F2po01qrGTKGhqvsoa0t6HCreomUa/d28rz2VzlvCvl7ut/RxMfCEdUN/ihjpNBtfTWHJ/eFFg25xm0pXZqfEiPgeP2FaQIwk3xsrM7yJonGW37sqM9oxRwasKOZgUA/tFWdI8gI9X6cGi9CGBBunzvqBRsk75jfltpFoR+3P+qjKa8vcXRlR1je2D1y0rx8xEo2jxj5gGTZywX6c9he3DZMzQsKlE66zOunbg5DszEpQXMGb6g9b1K9Ne/NjsilGnZt84vElJ16poUfPOMJpwbbvJp3hCq13UUTxY63AjtgZm6gJZrDjovBQWCnQjhvRcUGzYu88rPfXMm2iEgRNNy42172+sh30Pw1juJZpsq9N5i22j3HiLfqMMDkXi33Fe1Ptso9/R4z0QbXnMu3yb3QLg12ea3OjShc2LxTkYefcZnaySgqkAWJeqdjWKFtnp8ONJUUS85QYUV9NqxAjsW0YtgrljGNk5l4vhOwvw0FPPdAoeRvpBqj89aoEQuioo4c+ZzF20HhNaSwOhdvS/DhX1nerlX39iJH2Sb+TaAUzuQo2kcAL7Ggbtw0HfOtlNyTzwsxlGz7q9pCnqpGb97R9ebwv0dcvmhw1rHBU75XaUIs2Y4VXy+tT9YxjHBZr+7OwDZ+Nx0eYDMq/XVaMxGfxpRhRjxtCOw3iRTG+6/21RJtQjhFRX0V3RIQrI8swTfUlSbGST1d4Y2TTM8EKamwcHSo/TOSYiJEukvAVl5FcGSmC7bo5u+qPsik6q2jn6M8A1fZaNp+BSTV6ec+s4zRFktWdGImcLcjMqbaR+ANW/JlZLXw+zhJ/rVwhUKOJ/xJiRNwnG/JeJDnyz0bU695tQqIezJT1jd+QIyVMfYgRzUy8u33CixdFOxG/NRTl44uZFnGrFSONwrZNMh22nZUkXqk+tUX9FmlvbjJm++5ZP/Xe+dYm4Vxe5GOLyX46mhCHt8SFZXXb9mUx0tx+dKt9qxQjbccNzwFebGn810+b0IyZYfCo+29psiA1Lt6JJX22PaT7Wj3PaqK16ZmgfSNGVpyZT/F1CWWbnG3ri1li4LT7GsWDq7EDVYotT8kZBuVMezEX1mIGc5GVkWD2QpzlWS5Jqtyr2B+a6nQX2aal5K1PjuQtHuptWsIMpzB0zZKrRRJuZX2HFyPx+LY8tG1UPdALqw9N7WxmhyJutWKk6YpUwW+aBKHOSpMot+tXarGZjK30yogVFPr2llkQWa010qUcjsHJlQP1V+HnkRC5snoYMdLUfrTn91YpRtLtvTkVcOt02lz0+kfp2T7EiG7MXJUY0TNN9SXJvCXvCVuvjChWd1gZ6SsDnma5dpbKPxAY+/uVUEqIkVbL1o7ByZWgyGG7qgj9fuV+xUhktkSxTUtOEhVeTXY8ETaCCJQ7Tzub7c5yK3lH/Gbr6t9O5i+Z9y1GYszDNqas7xps00rFkbaNqtlE+oTUQG2T4a3oVlMp7gqZMxOV5dZL6aIDN9E9rN2KlrQr6Jf87aGyXW36lXqrTsVWi/pp25s0QaI8hxiNr4goTfVgrfucYFKr221abeqnbUsFg9iZkeAciBAPDYI11d7V/C9tmd0n0udQ9f7SCnTtmBnWRN1H5b2GPwnZAdMk+2TeEj8zEt7w1yIukjlBKir6+Xe2afXDdSWl2qTIf1nbG0s6M1a5MhJsR8oNsINI0VAOzGNH9vad1GDsJCDZ/+mfnbD/bTsG/3rJnOHlU/m2g9mHg9okDamBqWm/aWmnc94gvk3LraN07aHlNeu4Dx6d3SBW1Uezzc3ZJuZuq3EHw0CguNtq6ltudLzt85V9bkyHcVK9oyy/tkWt460apW/se+vbBdx21qq+yoRJnBHMnCoN+LJgF3iUdZKvj3zo6uzbRY1t1ElWs1R+/qHFCBtB1FY+rj/bLm6l2KtsqPWBNp6lm7+EG/h2pBvypE6yRXto06/4ryp5lXHj+VVdP217yyyITZAEHGJbRKWbobzfKpKx8Na2WJ/Tcduf9Z7CWbOQYSmAve2ynYiRwo6wjdXiW7NVT7wu1x1nY1mAw1txla7eX/qxNpj8EcdMwf4W/XcbMRLz96zuDtNEX3vF3qaVzFvcCQ+pj4v0ey22aQ06iT13HWKks0x8wILyoHu9MTcOr5hBv8UZ3RsuJ5s5seOX9szZp3fMbnkjizvYWKbCQdkAt/Cc4psR/nmLdklD/Z2pmfyZyeH+1+2re8acdw9YNw+ste9n5EUK19i6eNLiVLJp/v0Gb1tFJQJmb8jrfMOcEb/+7f92/oS54J5lcgaW2b/nvr5instE1fX7K5FYDnJlxbLfXTVmp3ZrXA8JiR/TxYA827JgvFn7dH1b2uexqQvr+oy8Wozk/ALm9e+1+JMcYRudO0HLRvhd8Q0b54vx0sRKc9xWLPfMjtlxvgkkfhdE6puEraFtVkaK1ux9eDbWHtr1K+FYEvJJf5tJ/K5Hy/bmH2CvVpzqcZT8Zox7pfG8esmZY+93lorMuGXbqiFu+6xujOpCjOSXbjz2/Mnm+NZu5fPDSvmtCRt7yW99tfKXXozoxsywzRR/o+yj2omRvGApBupjcfH+RF8rlhNcS+6vvkpnaIQJR8RIJCj4awhAYEQE0gfwRlQZTN04ArEEcuMquhYVim+V1WyDkqtQJIDZB2bjH7Zci6pP3gjN2YbJQwLA0gRYGVkaIQVAYBMJIEY20aubUyfEyCp9GV0xSt32FTOymLUd4MbHVULbiHdptklvREWpxMAEECMDO4DXQ2A9CSBG1tMvWDUjgBhZaSQI203K9yu3+1T2zvqW2jbMlVaGl6kJaM71qAvjhxCIE0CMEB0QgIBIoFief/4xc7T/AIQgsGYEwssa1szADTUnclh2Q2s79WoVK2JmjzFg6oGwgvojRlYAmVdAAAIQgAAEIAABCEAAAiEBxAhRAQEIQAACEIAABCAAAQgMQgAxMgh2XgoBCEAAAhCAAAQgAAEIIEaIAQhAAAIQgAAEIAABCEBgEAKIkUGw81IIQAACEIAABCAAAQhAADFCDEAAAhCAAAQgAAEIQAACgxBAjAyCnZdCAAIQgAAEIAABCEAAAogRYgACEIAABCAAAQhAAAIQGIQAYmQQ7LwUAhCAAAQgAAEIQAACEECMEAMQgAAEIAABCEAAAhCAwCAEECODYOelEIAABCAAAQhAAAIQgABihBiAAAQgAAEIQAACEIAABAYhgBgZBDsvhQAEIAABCEAAAhCAAAQQI8QABCAAAQhAAAIQgAAEIDAIAcTIINh5KQQgAAEIQAACEIAABCCAGCEGIAABCEAAAhCAAAQgAIFBCCBGBsHOSyEAAQhAAAIQgAAEIAABxAgxAAEIQAACEIAABCAAAQgMQgAxMgh2XroyAk+dMcce2TK3Dq+YrZW9dOwvumbOHNsx5uqRuXFu7HXpyf48rs7vm22fUfH3xuwd3TAP9PTq7os9MBePnzQHj+Lv7tn6JeZt67LZunnbXDnV79sOHj5hTj59djp93zJtb5lnTdc+7bq8fuOM0iHQBQHESBcUKWNG4PmL5sS9u+bQ4XH80i1z+/HhZMC17WNm59ntkSWHAwfU3I9mYN8NTKHh9bPkfXdrzxzt1yVHkQA+YcyFMtmc//bOGscg/l5dqMVEbA8WbHTfN+foji9h24tAtePUfVX7Xarddu3TrsvrIbYoEgJdE0CMdE10yuXNO1EJwVCiZKMH5L5ijeS0kWzTjHM8qTnuCJS+HLdguevu71Xb1+f7VphobnTfZ8eaRkGRECP3XChXjZZqt137tOvyFuwWeAwCqySAGFkl7U1/l9iJ2pnhYZKxjR6Q+4qnPpOxvmxeWbkH5tpTxjxwTl7tU8/OrsxexYvW3d+rtq/P960w0Zxa37dM21vmWdO1T7suT9EF8BMIDE0AMTK0B5Z4/6wDdTdF5YUNk/QX1WjcRy/sr1+i7tpHpzYga7k0/q7PZKwTA9e3kKWSmqGqte7+XrV9fb5vhYnm1Pq+ZdreMs8iRobquHjvJhFAjIzUm6UQcZapjRl2FSIlRsqtWvPBfks8/BuKltmg6jnKWWKf/Yutu/u7bbN9377Z98+MCGdb8qdqh5GtjZcumIMn6udgTI25FECyLbVDzeKWNk9IijbEzx5I4lSqky9fjc8ySMZmB9r3g6p6tqTs1dS5OAzqvSvwtWdIxJ9BvSRXaWIhf075DimpkZJCMabLuFLyFngmt0NKz9y3bcyzmXe9M0K6dqeN/+x3tXYzq+NB1r62svZViy3H36INxsadVIbThrS+darQ/L5YP5P/fTgJJLbHjPV+xtptl/KkUlZizR+KPsVzRRB3yhi2/bhbXHNc2QsvbpmtR7KzVHfqfbB/mYPM2Ot/I/15WZYgGMu2d2nL7D5R763q9s/bV2KLl9RutT7V1TEbtYQJxW0hRuTxzW9TkfK4iGSkWd60zEaMjNHfjTN380HLVPthV1bFyKzfrGMOkwSNGLGdtZRUu8mT/Z076FQDgps0zwciL8FtGrirMnViLznLJhygLAcb129O8pBMMpOzuTbBrQsIiZtNvEu+edkPnza33cPawgFSN2EP7FXWuf1sbot6BQ1BGQulQEqz04iRaEy/3pgb+a1vKt5hQpVu5wKrSIxp2530zqC95z8K+gZHcDlJoW2zqfY+e69cRu3fUu28QaBKFzg02Xfovstydf/OEYJu/a5tnzDPPe7erhVeepDsU4R6BG0pe/+Jm1dqF4qEfl4mrrzkOHqu49ATWmFcJusbFSP5VIsrDKX+YUExovZp7r+L5vShe6Oe0Neoy8si3R9DpTaVHAPSPQS/gMBQBBAjQ5Ff4r2zjnorfkNUMQgcrP7ArCBGSkHgzoqqV0biwqoo98AKrsTv3JWR2DYJ36ZYx67YZpEaSKP/7vtNGqxicZMaiKJ2C7c9pcpyE0HBr7WkbG6vts6txUibevnstLHQ4h1pMbLoZIGfQC2QNCbqWyXf2nYnSpHZylaweujfQBaxX4q9aDzKQrSwSuvbVmIkztxP6pvjPb1l1X8+1afERWHiFrfYKmhy9dd9Y4yLH0cNse9NbiTr27Qy4l+bHBPCLVdGlvWp37fpy0vwtbf6qfrtJRIPHoVAjwQQIz3C7avoeiIuvCWW7PdlkC1X3IbjzZblv1WLkdh2FfvC+naNMAGyM0rVgBzbEmFL9LeSBbOjGraJFY3YEn5ZK7us3mpwcbZxCNuamgb32MpV89W+wgDZYK+6zpHZ41jotqqXV4g2Ftq8Iy1GFhAREfEnr/zFG3m0HrGENFpUQ4LrxL74eBmbMQ5265VzJXhKjAiJs9a3oo2x9zW1Ry+ZjopqxWRGblPgq0Sf0p0YsX1mXqL2Oup4TNc5NMS+v3Kaqm8bMaIQXOl2G44lJXOlT/2YUMeIuk01jwF9D/+UD4FlCCBGlqE30LPJlZGi87puzq7gw1o1BMpOWS1G1J2wdjB0B1rZeeX2iURCEmwxC4rz9niXCZO099t9ONzO1uZ7H/UkrEommlYcYomP+96omBBWRkJ7W9TZTbznWJq2qLWql+cjrUBq845kUqMUmCreeX1qEwDNl1eoxYi63QltKDYhYX/qn4sJhEQ3YkTr21ZipKl/8/yqTjRzA6K8fX/G+hS5LwttiLfDoI21iKtyu5wgCms2NMa+1Ic31HfdxUi0HSj6ZD/O1G1qFgexMWCgdIXXQkBFADGiwrRmP0rMzidXTvqqTtdixO4JT24Z0IuR5PK/ZbO0GKkg+/vM1VuRlImr6E5vv3Z6dt+ZBfXeG+4rz9+4yMqIdqbV1ih9RqdVvTxQ2lho846kGFHEtJq3Wx+b0DYc9leLEYWN0S5EHbOrWBlxPz7ZotNbYmXETmboxYh8bikVm+LZFVFs+8mvfElGdMJDEVdqMdIUV4m4Ceq7zmLEX+WZ+2XZlZE2k1LFK4UzOy1aAT+FwEoJIEZWiru7l8UGI80g1Z0VXkktxUjs9p7qcKf269Wx3wl7yr3tFK2TqoQQlMurz/bKyabwpDqxi7zVPVcTrXf8YKX1j5xYtRMj6jr7VUnxblMvv2xtLLR4R1qMpGNazVsUV6mzZPve4eFqJjW8qKGteHREauoGtGhi2s3KiE3Ekhc/SE0ntS1MqJu/1TEW75qkOjcpJUasADjwbkBzq1OPo8h5DUUfk1yJj1zwUIqUklc89tP9gxcXUTFyWL8VsWTp/v1iB9jVPo2Mg367Vpdn+SbbVBjMg01M9pZkUPCmEkCMjNizsa0ItZtoVlk/rRgRriB261Kz387ueB1x0ZE//5g5mt/wVC5N21WU2tYHN6mqlv7rnPIB6rLZslvbllgZyety+VS15z0cdKxIkmYpD8xjR/NbWBSJQunenNMjW+UXhcutH8L2sFDsydcaWzFi7a8SO+csj2qblpOk+legFnW0dZ755uDRI3Pj3KxmfpIXhrPkz5iP/aeVseBcM5pilxYjzjYKP0mb36Rm5td9NvKucdOKgDDu3HZXS9yV7U7qXoK2OP9RvV20WBmJJmNN52+0vpVqIK9WVCIhu7EpOPxc/7tq65Xte+pbjqo4CidMqm02Vf+Q7lMiiahzeUdMCBX3T1lRs1Rc5TaE9U3250KsJevbIEZyK8r6iHG8mBhR+1RYTaraWbgCncmk+WU0sRhx+gxvl0CN4panRQAAIABJREFUU3IMqLYpD5YjrDIf4V2jIoAYGZW7IsbmnZ+9FnTI+qjFSGakv086T8yeMebMvbsmduWvXzW/Q/XFWTEg3Xsxu1nMeDePRfZOC1dzLnKAvb5nd2Z1OEMbOZyvTu49GtK+c9W3WIRzBsJAH7LdM2ef3jG79iaX3JykeErXWRLY6YFT8qf245+KWChQ696hESO1pLZ0Y93eNG+JpWIlI4iT/Jkr5rlMBF6/3zk0ntsV2aue9of8vQPxylXNmZGcfu17DOmLK2ZYtb4NO82mffe69i3wK9rjaXMxu23MuN9+kHxy1Zgd50ZE9TudqoQrbCGP7at7xpzPv/difb9IXFXJ/Z7ZqX0TSlyZkuLKi4NkfaNiJFsZvLllLmfjSPU9Jb9dLChGpDYR86lfx+x3e/dfNzv+LZjC78QYCdqAdXTiuzri1db+N12GTBp4NwRmBBAjRAIEIAABCEAAAgsSaFqhWrBIHoMABCZFADEyKXdTWQhAAAIQgECXBBAjXdKkLAhMkQBiZIpep84QgAAEIACBTgggRjrBSCEQmDABxMiEnU/VIQABCEAAAssRCC+eWK48noYABKZGADEyNY9TXwhAAAIQgAAEIAABCKwJAcTImjgCMyAAAQhAAAIQgAAEIDA1AoiRqXmc+kIAAhCAAAQgAAEIQGBNCCBG1sQRmAEBCEAAAhCAAAQgAIGpEUCMTM3j1BcCEIAABCAAAQhAAAJrQgAxsiaOwAwIQAACEIAABCAAAQhMjQBiZGoep74QgAAEIAABCEAAAhBYEwKIkTVxBGZAAAIQgAAEIAABCEBgagQQI1PzOPWFAAQgAAEIQAACEIDAmhBAjKyJIzADAhCAAAQgAAEIQAACUyOAGJmax6kvBCAAAQhAAAIQgAAE1oQAYmRNHIEZEIAABCAAAQhAAAIQmBoBxMjUPE59IQABCEAAAhCAAAQgsCYEECNr4gjMgAAEIAABCEAAAhCAwNQIIEam5nHqCwEIQAACEIAABCAAgTUhgBhZE0dgBgQgAAEIQAACEIAABKZGADEyNY9TXwhAAAIQgAAEIAABCKwJAcTImjgCMyAAAQhAAAIQgAAEIDA1AoiRqXmc+kIAAhCAAAQgAAEIQGBNCCBG1sQRmLEeBA4ePmFOPn3W3Dq8YrbWw6SRWXHNnDl22WzdvG2unBra9OVtubZ9zOw8m9Xjvj1ztP/Aiiq0vN0rMrSD1+R13THm6pG5ca6D4igCAioCB+bi8ZPm4NExxF3M1lnb2V9p32Thric/xm9V8K/ljxAja+mWkRr11Blz7Py+2R5xYjFLPrfN3tENs6rUc6Tels1epxhYypbZYLt7x1bzuLlw84Yxr8//bpH4sOUpnl3K7pFF0/MXzYl7d425dMvcfhz5PzLvjddcKe7m7e74usVipI0MOlatabsdlMl4W8NaWI4YWQs3bIgRG5BE0ZktGYvrFAPL2CIOtlZQ5MKk7cpPi2eXsXtJ96388S6Tmi7LWjmI/l5InyawbRAjq10FVfhdsrX4u+vmbOt+SPE+zU/WtK0R6xrnredvECPr6ZdxWrUBSRSd2ZKht04xsIwt88F2a4hVvmXsXtJ9K3+8y6Smy7JWDqK/F9KnKcVIfy5YrmQhrg+eumbMuQeG20q8pm2NWF8u1IZ8GjEyJP0l313sj3zi0CtlkVnbJQ2xj29AEkVntmQsrFMMLGMLYmTJQFA+3mVS02VZSvPH8DP6tM0TI4PH3Zq2NWJ98MhY2ADEyMLohn2wFCK1w2sttoL0YX4y+ZsfuAve7e2jn5fj/qx5H6+/vz9/Ml1mUb53+C/ozOadri/5zD0XaofcZ/7YMhcuHZhdKxCdssuD0G6lvDJM63obIwnS7at7xpyvHwou3n9Qtzl7enYuwnh/L9hhTChyxXfft232n62fGxLrnnvIXXWwyf+lC+bgiV1T4604oKm1pazzHS8Iy3dIsVTFSSw+thR2SwOl1m4VQ+vPWt2az6gU5Zo9c+vU5WBiIzj7JcZFpA1lsXZha9fs5of/sz/R9ivN+oqTLA1lZOXLfNy6N/vVRoNtJ67txb8VbfUh82TtHJFfd3sY/5bZesQ9byT0RzGbW/Qr8mSUwynSd5W+iAluoR+XuNhydLEZDjjLsc7L0/lU7Fezfspk/VTtrJIQi4vUzT4TtB/rj6b+TBoDBFtnvjfOdlHl2GqE3/njkO8qpU35Y6pxLgiFHsfvMOz4mzUlgBhZU8c0mtU4KxFJMFdRz5QYye1++LS57d5KFBwabH9DSNgxe5W1g4DX6UqDRpAwZvaduHmldrjWJgHuYFMlBvGkXUq+q8Gwfb2NVC9n4HDfpxYj4oApxJT63fmzF83pQ/dCgHldXX84iVOVuCrFtdoWO1h6PpLiNpKoNYnVlN3RZ10Oov90DJPtQOgDquTBTdxtwuL8Xes2JCfggQliAnjCPPe4eyZHefi/oV+c1TPtd4lHLekPJhjcMp1Ez004rU+dv5P6ENue3QS5qV+5tq3jFJ0tbitGCmHpi1tdbErDz3KstW25IZZ9kRzEz4J1i4iOdPvU2xqUpRpbLTPFJRqlw9radChOMjVdUJHk0rrvaVO/VSRGvENDADGiobRmv7Gz8NEbn4rB72CBQ7ZLVjQlRsTi/SS8fVKe6szi/x4mxapl3obZ3HAGOC4O6wKhw3o3zGzWrywObYuy8mKq+XfpG9ViiXkwaCliSm9LjPGcw5ZzfW9LMaKx26+z3m65XarLa2jWsXj3bWvfhryVr5gNyu0eqTZeFB8tS+93mUfk+SA2E+8pVyC1fUK18qm94Uni1KUY0d6UqOlHe2Vt23Ks/5BiRRmL6bpJ4lkxSdjCVlV7sKsggYBukayrbdLHtN8VpOrSvu9pUb8lUx4e744AYqQ7lisrSZ7ldl4fm/Hq20JF4hiaEA7g8mxtg/HirHr1+/jgEQ4a6YFGTnqSHWbU/KrjbFvvqK1LiJHYtgRrvk1G2rw7PisazrwHSb0iltW2RLatlPYJKzX+AXa1iBLs9p9V2x2JHd0qTXOj19rQeRuyZikTwFTC0ihGWvi9nwTZn5GObakpW1l5tbiq3o6L+xUj+iRP048uxVrpUxNsZ5rD6lWMZO/w+2BFnEd9HZ38crdpib1s+B2SyMp5rJfQ26SP6eBdqx6/+86DKH8hAoiRhbAN+1ByZaRo3ANc+6cQI9Fk199HW9unqjmU7+079c8A+Oci5i5MJ4iRfcnZ8+5sZarTDs6c2BBqPDfSXG9tIpm/Shaw/mxWvK4zcyt72rxb2rM9K2/FYiR25sH6wo3BZVdGuhYjUdulbTPOeYXEeRudH5tnddNtqKG/bEgKwzaT6AdiCV8Lvy+VIAsz0bbmtXKViXT+1ZVGMRItp86pu5WRiBhRx2Y9DpZirfRpql9OnRlR9V1ieNcn2TSiso2tcdEpGBP0AXXh0LTqprapRUzLvUFf4/ewuRpv1xNAjOhZrc8vE7PFyZWTvmqSECN2/3N9qT+xPSmyX7SpClbwJGfxhQPccmLlJUGtZqrab78q6qaoty6RnJHSiRH9nmL1u209lBcFrGJlRPWBvXUSI1qGXqPw24HUZrR+TK6MOGJfMyte2hK0JeE8USopt4XFxIhiVloUDaWRy27TiqyMqC9mkGbA9Zx6FSMLxmbZJwUfmFWyVvpUnUw7fW7ZPyxRt3r9rpjnpItCvAbZxlZ5G6V3XqNBHM9enT6Tp7dpwXFO6JS6HL/7SnUot3sCiJHuma6kxFiioUlAejMwIUZazYQ5RiZXgoIKzTrGg/mXdGUR5CT80T21kRnhVmJEefhWcEqq3rF6STEgshcET5SVOHD6g191m0opOCMxEdiTSCSbvveh5yAncGJ7WIEYUdutZZhoB3ExEp7vmPmnEuGLt6FEb+P7PRIHmpnl5JmR1K1BVrQvmiCXNxX5Kwh+3On7BH0yOE8vhW1JKTHii3N1/5G/cuHYjE18KMWIZZ3yaXBBisvpsH7Lmx97S9SteIt9fn7TXvKbRS1s9eNi0bHVtpmobWqb9DGdzj+6Gr/Tb+IX60MAMbI+vmhtiR00/Ae1hwxbvzD1gHJlpFoWFm6fKQaEA/PYkb19KZ1A5hwun7pV3ngVJk72PdLNN81bGoKBObK/tTFZslsKpGs7n3/MHOW3iy1Q73L1pNzuVF/qrsWBtcEKL3dZvWaXxMoKN8cv5fM28Yq8WxA8Vdx2s02rDQcbG9KVzm4MxQbpZURU7NlM0s3PCCzHMN0Owgbs9iE2XmRGi7ehxm4jtjLibOEr7RGul66XHe8rtH5vldTFDrAXRoU+FdtjU5+QlRLvV8JbjmKc4hMM4cy4FA95bVKC5tCph9i+hSBYjrVzrbmw6lq15TBu3TrWtihFhPEidZtLntnV6XfceGhqDXpbYysjjWPrfCXk4NEjc+PczA5/0kHoIWbnToIturNf1vhpxrlIHPQ1fmt2GKTSGv59NQQQI6vh3O9b8k709cbcOLwy3BdZ8xpG9/H6Zw0qHMcv7ZmzT++Y3fImI+kgXPPByWoQdsutxMm82513qq4rwnLDATI8R2G/42FXXvISkzO3ETZVgtK+3kVN/HLzpODRA3PyfHijlS9e83fvvFv6/kjkMGLjuZ7MliIhOW0uZoOXcb8hIti4d/91s5N9l6W8EW6JlZEoB8mW0leJj4WuYGWkld0Khrp2UO+Kyni/asxOFjPlH3HGWRejy23TyiwI9p9n7bSwL31DYJ1BvX1LfPzv5yyXIFez+nvZ11t25t9YCZI2CznZJ7Q9MxLj1HBGwGed+/0ZY87cu2vc2fJGnypiUxoAl2M9K1HjUzGejmZbp67f74wTUh+0YN1sfWMiOJoQSLEv2CqNN37/Ho6t8ndAkpOXSpvE/mxe0aZ36PqtBfseYTKs32SM0hclgBhZlBzPQWBdCSguElhX07FrtQRaCYfVmjbCt3W3b36ElcdkiQB9MXEBARUBxIgKEz+CwIgIMACOyFnDmooY6ZI/YqRLmuMvq8tzFOOnQQ0g0EQAMUJ8QGDTCCBGNs2jvdUHMdIlWsRIlzRHX1bkNq7R14sKQKAHAoiRHqBSJASGJZAnRZfN1s3b5sqpYS3h7etNoNivbS9RWG9TR2DdbCbcPSA8AqMxsScCRdt6+mx2jm7gs5w91Y9iIdAlAcRIlzQpCwIQgAAEIAABCEAAAhBQE0CMqFHxQwhAAAIQgAAEIAABCECgSwKIkS5pUhYEIAABCEAAAhCAAAQgoCaAGFGj4ocQgAAEIAABCEAAAhCAQJcEECNd0qQsCEAAAhCAAAQgAAEIQEBNADGiRsUPIQABCEAAAhCAAAQgAIEuCSBGuqRJWRCAAAQgAAEIQAACEICAmgBiRI2KH0IAAhCAAAQgAAEIQAACXRJAjHRJk7IgAAEIQAACEIAABCAAATUBxIgaFT+EAAQgAAEIQAACEIAABLokgBjpkiZlQQACEIAABCAAAQhAAAJqAogRNSp+CAEIQAACEIAABCAAAQh0SQAx0iVNyoIABCAAAQhAAAIQgAAE1AQQI2pU/BACEIAABCAAAQhAAAIQ6JIAYqRLmpQFAQhAAAIQgAAEIAABCKgJIEbUqPghBCAAAQhAAAIQgAAEINAlAcRIlzQpCwIQgAAEIAABCEAAAhBQE0CMqFHxQwhAAAIQgAAEIAABCECgSwKIkS5pUhYEIAABCEAAAhCAAAQgoCaAGFGj4oebSODg4RPm5BPGXLh521w55dTwqTPm2Hlj9o5umAc2seJL1+maOXNsx5irR+bGuaUL66yAwp9PnzW3Dq+Yrc5KXaCgPH4e2erMjqJezz9mjvbXNxoHsXFhzgfm4vGT5vr9t8ztxweNlAWCa8SPFP3qvtles36jN6ILx2dvFikKpm0oIPGTjgkgRjoGOuniRjfQzBLqg0thQhKIlOcvmhP37prD+/bWOiFcWfzNeRiB3cpsEF50bfuY2Xl2ux8ROY/v44o6d2vHLDnYNRc6Ezfd+0iwcQVtZnHOs7a/v3R7ntf7Tk8x172jBiyxK+YDVqHlqxePz5Yv6vTnoZ9m9TgeTtp1+l4KmzIBxMiUvd913UcmRooO1sjiIipG7lnnhLBrhzaUN2ExYhQJbLdJyMjFSI9tZnHOXSXGVoz0m6gtXs8V9gmJVxV1OJhW/zlOv8XEiJnOitb6NJvJWIIYmYyrV1DRUYmRa+baUw+YByJbjKLbt1aAcRSvmKIYaeGYbpOQkYqRFrwW/eninLsSI4ta3u65xevZ7j39/bq5v+3vvcOWPE6/jattDOth3t4VAcRIVyQpx5hRiZFmhyFGEgGNGGkE1G0SghiJwV6c87gSrsXrycA0JIFx+m1cbWNI//Lu7gggRrpjOUhJs6T5cP7ugfctJ8XIvJMLSHl2z8txf5bcp2/3p3tlBwclhbKLR7ytN6EYiXTQYnm2Psr6GuF3jVtb7OHxW2brkewswR230mEMzAbEMDzrbOz5mQtm64lds1/8vGHriSBGdO9x7WjYbx+cz7C/9erh+U0c/JU+z0sW62DfIQowya5ts33fvtl3z65E4tMEfpZiISsv88h+4szILGa3zIVLB2a37BPyWs1iwvhxIMSYWP+FbQzbTL2/qnyZbN9GyTkvUtUXpBIufWzqY85rT3M7ty5dMAdZm7O9eK0/itSlxqtFfJfEbbnRGIi3/Xic+dt4ImfyhHa0qti1W8UubO2a3Xmf6LJs34dZol3HZ9hfL88o0ocG/Xys3boXvUjjxdxmaexSxqjUP0zmsoNBMsj1eSliZH180dKSvGM5Y8wz9Vug8s507w0D3XCUEiP5IPTwaXPbvREoSDpTSYKEaf6M1wkGSUJkALYDkNvpqcSIeEDX8YvR1NcmwG2EpJOwusm47fCdv7Odez3Zs8+774yUGYvKIKHI633RnD50bx+T/VIrMnIo3PedeIBSiLflfX5Y3xed1/P1xtzIb+eKJlGHRk5oHL6ZrSduXqnd3GR948ZdGItOApE4e1EN5E4i6SYBzvPSu6W/s4m9e1GB3kZp7/kJ89zjbp+lOwAuxXGVOApxnOoL7ARA0/mfVrHp2BDtF7xLCByhUcWPfAYlOsPeok/zm7LYphRcxDgT7WgrRnI5tprYtQLdvZtO31fGhIKiH7B8k/EZf8eijKRxrhTuNXv0YqSYtHLakP4d1cRP2f+t6Wp7y8SMny9IADGyILjBH8sGyjPmhnCtajaYbT9pHtof4GrTlBgRofkd3wJiJPZeO/M4v0YyvvUqTJo1YmSxrVyxw4ELiJEgkfK38zRs74mJwPksevICWeXAkd6mIAkWbUzM67dVXULgv0/vc8VWKFGAybdcpetdzeBXiX4s9hW2ZcXJdY0827Yu5cHjNjbq2nK6HcXrH3BW9gVZKqS4TUsTm+FkQvN14QfVjUSxNqQR2fO+VB/fQucriS1FHx57ZxjzbcWIf8V617ErJMAlljZ9pc+yj/iMiZFFGcXjPZyEaCFG/DEoOmEjXJ/vCzPlmDJ47oUBvRBAjPSCtf9CDx4+Y548f6P+bYxygIr/W6+WKQay8P2x5Dz/pS5Bj239sO+ys47xBDGcndWIEVXCGVRYGBSc2WvdknR8YKnb1JBwBbO3muTMqYxy4NAwCmZo/TiKbXGy5jizevKKihRHvs8V9Q/qrPVDpNX55UWZrkKMOCtjorlzhq1sVDCNiijXCD1nbV+gEyM2eQ1n68PVrCrGYlt9bI2SM8HeJEr+XKwdtenThPQ2uDJa015jYsRuI6q+zbQqMaKM3QaOjfEgrnT1HZ8di5Gm/lqxO0EzHs4sDn2uj1H9KnCveQyFD0IAMTII9uVfOlYxEh2o/RmW2h7T5mszdYN/c0KXnlH3EyJdgqiur3dupHkPvTI5axQM2tUHZSKd/yy2LzglKj07Y7Pd0VYTbBOwiWELn2vE1VJiJLZfO9t0Yb9b0irR7ydZqZ1bcF9hBV8rG4U4jQrLpjaujPcy2Yz3r5WI0Aklf5ualFjV/y7u55lVTj1jLNVipEV8R5DUk0wdk7UTI0tMVpRYWvWVPsw+4rPj9t00Uajo1xYXI+1jtD6hoJuQXD6jooShCSBGhvbAou8X9qCXMxPHnzNXhvgCdWJlRNyTntouEdkT7WJLb/OYk4l+EC/sMDWdb2oWcaH6lgd1u0jO0isj6S1CSjESmT1MMZqV7vI/bS76H6PTCIW5ma1XRspD4YpETDFoW1qyHfIB5tIHrRL9jpOVVDu0r2tlY0Twevvl0+1Xn+ylyyo9pNimpYjNUgD5KyOKJGppMdJ03kw3WVITW/deVH0dfe3EiDZ2BV9VrahNX7m4GNHHZ8ftW7Ey0iTUNeNhmX94HxJOrozELuYQzkAumi7x3PoTQIysv4+iFuaNvH5YXT7UvrIqJsSI3Cmlk8Bw+d+rUeSgqV9vWRxkvxISaU3nGy0vkhi7nXXjl5+FmdF6Xey2BD/h8fe4xw8Ha/YJN8aNP7hFfK8TI855h0tb2U1Q+97Htfx6xS2TV7i8Q+n544HPFQepgwE99ozvH+3e90g9FYK8SJuL27QW3VOuqH+BvY2NXtuOJETpBE3LOTNP2Rdot2nVuIqxGTszIsScH7YdiJE2fZrcaqrYLG6YUnyUsK0Y8fs6a7O7+rua2FWItzuhiEz18+VkSvCs0E+r47NjMRJrt6VAcydKwjFZMx7GxMgyMVr054qYXFmOw4t6I4AY6Q3tigp2l6h7/NKxqjbKlZFqEHL2+tauTz0wj2VXkc4OUWsS0WprRHhd7WWzddPe3mPfJ3S83vWGqs63ZF+V5z730NXZtcuN9Z2vChw8Wt2AFpyhCOC7e6S9LUl3vOs17eySGxvS37WYXSzM8RMpIWGutqjpZ4mLbUJCHJdL98JVvpdP3SpvqYodot2v+VeKA5vMZxaU7/dEhJA8BnbVtoyE5wj88wLF/UF2m1aZGDh/F7kNS2qPyyV0VSLv8y/Kff4xczS/Bc/6tbQ7amNkZcTZtldtyWjeiqnlXCWG0jWzQl/QdJuWhZzoY3UxZ9uM07e1ECPxhFjfp0X7cMd/6SuWY6LX/v1WcY20vQDDxoqN+8rf9bhfbexG+iN1XxkTCllr9q4Bn217dN+nHau6FiNO/ybctli/2r5bMVKO4ak+OOf/yJa5ZXd1BBNGsUk4VXbCj9acAGJkzR00KvOiZwaqRMM/Q3H80p45+/SO2S1vRHITbVt7RTIrfodASmx15avEiJOUu3vtm+6tD+srf9ui+SB7NVjsmZ3aN0TEZELyS5CEpVeoarEoJVL+e7Kkfu/+62Yn+/aFm6DIMV0N0rGEyE1kqjLqSWzj6lvtxXJMhe9I7/EPYzoTR8WWF+PUOzxLsH11z5jzO+bAESNuMl1Gf3Yb3JWbmSB4+mw1UAsQl07o8jIjbbgej1JdJBuFmAr292d+uGrMznnnlqlIp6fjnD8cObeRuL403tc2x6Y+5rI3uO2uhRipErqZlfJV3W4NNH2m/b0szmM89CsjeQl+f5vbtWP2vK08q4rd5Eqtqq+UyXQbn92LkaJl1L5LJsWS47NAtITfGQlX+Gf+rvdpUhzkf+fFqHT2R2qzqTOI8YbMv6wxAcTIGjsH0yAQGfaU+93hBwEIQCBFQHm+JFUM/w4BCEBgQQKIkQXB8RgEhiPQchVjOEN5MwQgsO4EljjHsO5Vwz4IQGAcBBAj4/ATVkLAIYAYIRwgAIFuCKTPqHXzHkqBAAQgECOAGCE2IDA6ArNtFe6h99FVAYMhAIE1IDCb2DDZuaQb59bAHEyAAAQmSQAxMkm3U2kIQAACEIAABCAAAQgMTwAxMrwPsAACEIAABCAAAQhAAAKTJIAYmaTbqTQEIAABCEAAAhCAAASGJ4AYGd4HWAABCEAAAhCAAAQgAIFJEkCMTNLtVBoCEIAABCAAAQhAAALDE0CMDO8DLIAABCAAAQhAAAIQgMAkCSBGJul2Kg0BCEAAAhCAAAQgAIHhCSBGhvcBFkAAAhCAAAQgAAEIQGCSBBAjk3Q7lYYABCAAAQhAAAIQgMDwBBAjw/sACyAAAQhAAAIQgAAEIDBJAoiRSbqdSkMAAhCAAAQgAAEIQGB4AoiR4X2ABRCAAAQgAAEIQAACEJgkAcTIJN1OpSEAAQhAAAIQgAAEIDA8AcTI8D7AAghAAAIQgAAEIAABCEySAGJkkm6n0hCAAAQgAAEIQAACEBieAGJkeB9gAQQgAAEIQAACEIAABCZJADEySbdTaQhAAAIQgAAEIAABCAxPADEyvA+wAAIQgAAEIAABCEAAApMkgBiZpNupNAQgAAEIQAACEIAABIYngBgZ3gdYAAEIQAACEIAABCAAgUkSQIxM0u1UGgIQgAAEIAABCEAAAsMTQIwM7wMsgAAEIAABCEAAAhCAwCQJIEYm6XYqDQEIQAACEIAABCAAgeEJIEaG9wEWQAACEIAABCAAAQhAYJIEECOTdDuVhgAEIAABCEAAAhCAwPAEECPD+wALIAABCEAAAhCAAAQgMEkCiJFJup1KQwACEIAABCAAAQhAYHgCiJHhfYAFEIAABCAAAQhAAAIQmCQBxMgk3U6lIQABCEAAAhCAAAQgMDwBxMjwPsACCEAAAhCAAAQgAAEITJIAYmSSbqfSEIAABCAAAQhAAAIQGJ4AYmR4H2ABBCAAAQhAAAIQgAAEJkkAMTJJt1NpCEAAAhCAAAQgAAEIDE8AMTK8D7AAAhCAAAQgAAEIQAACkySAGJmk26k0BCAAAQhAAAIQgAAEhieAGBneB1gAAQhAAAIQgAAEIACBSRJAjEzS7VQaAhCAAAQgAAEIQAACwxNAjAzvAyyAAAQgAAEIQAACEIDAJAkgRibpdioNAQhAAAIQgAAEIACB4QkgRob3ARZAAAIQgAAEIAABCEBgkgQQI5N0O5WGAAQgAAEIQAACEIAwTEoAAAABbUlEQVTA8AQQI8P7AAsgAAEIQAACEIAABCAwSQKIkUm6nUpDAAIQgAAEIAABCEBgeAKIkeF9gAUQgAAEIAABCEAAAhCYJAHEyCTdTqUhAAEIQAACEIAABCAwPAHEyPA+wAIIQAACEIAABCAAAQhMkgBiZJJup9IQgAAEIAABCEAAAhAYngBiZHgfYAEEIAABCEAAAhCAAAQmSQAxMkm3U2kIQAACEIAABCAAAQgMTwAxMrwPsAACEIAABCAAAQhAAAKTJIAYmaTbqTQEIAABCEAAAhCAAASGJ4AYGd4HWAABCEAAAhCAAAQgAIFJEkCMTNLtVBoCEIAABCAAAQhAAALDE0CMDO8DLIAABCAAAQhAAAIQgMAkCSBGJul2Kg0BCEAAAhCAAAQgAIHhCSBGhvcBFkAAAhCAAAQgAAEIQGCSBBAjk3Q7lYYABCAAAQhAAAIQgMDwBBAjw/sACyAAAQhAAAIQgAAEIDBJAv8/ZfHI4prth2IAAAAASUVORK5CYII=;" vertex="1" parent="32aNe6h-Z7KqoS8JLjo7-156">
          <mxGeometry x="-88.75" y="-50" width="803" height="331" as="geometry" />
        </mxCell>
        <mxCell id="32aNe6h-Z7KqoS8JLjo7-161" value="" style="group" vertex="1" connectable="0" parent="1">
          <mxGeometry x="600" y="90" width="60" height="70" as="geometry" />
        </mxCell>
        <mxCell id="32aNe6h-Z7KqoS8JLjo7-162" value="" style="ellipse;whiteSpace=wrap;html=1;aspect=fixed;fillColor=light-dark(#FFFFFF,#000000);" vertex="1" parent="32aNe6h-Z7KqoS8JLjo7-161">
          <mxGeometry x="20" y="30" width="20" height="20" as="geometry" />
        </mxCell>
        <mxCell id="32aNe6h-Z7KqoS8JLjo7-163" value="" style="endArrow=none;html=1;rounded=0;entryX=0.5;entryY=1;entryDx=0;entryDy=0;" edge="1" parent="32aNe6h-Z7KqoS8JLjo7-161" target="32aNe6h-Z7KqoS8JLjo7-162">
          <mxGeometry width="50" height="50" relative="1" as="geometry">
            <mxPoint x="30" y="70" as="sourcePoint" />
            <mxPoint x="240" y="60" as="targetPoint" />
          </mxGeometry>
        </mxCell>
        <mxCell id="32aNe6h-Z7KqoS8JLjo7-164" value="Direccion" style="text;html=1;align=center;verticalAlign=middle;whiteSpace=wrap;rounded=0;" vertex="1" parent="32aNe6h-Z7KqoS8JLjo7-161">
          <mxGeometry width="60" height="30" as="geometry" />
        </mxCell>
        <mxCell id="32aNe6h-Z7KqoS8JLjo7-165" value="" style="endArrow=none;html=1;rounded=0;entryX=0;entryY=0;entryDx=61.875;entryDy=20;entryPerimeter=0;exitX=0.5;exitY=0;exitDx=0;exitDy=0;" edge="1" parent="1" source="32aNe6h-Z7KqoS8JLjo7-167" target="32aNe6h-Z7KqoS8JLjo7-139">
          <mxGeometry width="50" height="50" relative="1" as="geometry">
            <mxPoint x="560" y="440" as="sourcePoint" />
            <mxPoint x="680" y="280" as="targetPoint" />
          </mxGeometry>
        </mxCell>
        <mxCell id="32aNe6h-Z7KqoS8JLjo7-167" value="Solares" style="rounded=0;whiteSpace=wrap;html=1;" vertex="1" parent="1">
          <mxGeometry x="440" y="440" width="120" height="60" as="geometry" />
        </mxCell>
        <mxCell id="32aNe6h-Z7KqoS8JLjo7-169" value="" style="group" vertex="1" connectable="0" parent="1">
          <mxGeometry x="360" y="410" width="80" height="70" as="geometry" />
        </mxCell>
        <mxCell id="32aNe6h-Z7KqoS8JLjo7-170" value="" style="ellipse;whiteSpace=wrap;html=1;aspect=fixed;fillColor=light-dark(#FFFFFF,#000000);" vertex="1" parent="32aNe6h-Z7KqoS8JLjo7-169">
          <mxGeometry x="26.666666666666668" y="30" width="20" height="20" as="geometry" />
        </mxCell>
        <mxCell id="32aNe6h-Z7KqoS8JLjo7-171" value="" style="endArrow=none;html=1;rounded=0;entryX=1;entryY=0.5;entryDx=0;entryDy=0;" edge="1" parent="32aNe6h-Z7KqoS8JLjo7-169" target="32aNe6h-Z7KqoS8JLjo7-170">
          <mxGeometry width="50" height="50" relative="1" as="geometry">
            <mxPoint x="80" y="40" as="sourcePoint" />
            <mxPoint x="320" y="60" as="targetPoint" />
          </mxGeometry>
        </mxCell>
        <mxCell id="32aNe6h-Z7KqoS8JLjo7-172" value="Temp. media" style="text;html=1;align=center;verticalAlign=middle;whiteSpace=wrap;rounded=0;" vertex="1" parent="32aNe6h-Z7KqoS8JLjo7-169">
          <mxGeometry x="-13.333333333333334" width="93.33333333333333" height="30" as="geometry" />
        </mxCell>
        <mxCell id="32aNe6h-Z7KqoS8JLjo7-173" value="" style="group" vertex="1" connectable="0" parent="1">
          <mxGeometry x="360" y="460" width="80" height="70" as="geometry" />
        </mxCell>
        <mxCell id="32aNe6h-Z7KqoS8JLjo7-174" value="" style="ellipse;whiteSpace=wrap;html=1;aspect=fixed;fillColor=light-dark(#FFFFFF,#000000);" vertex="1" parent="32aNe6h-Z7KqoS8JLjo7-173">
          <mxGeometry x="26.666666666666668" y="30" width="20" height="20" as="geometry" />
        </mxCell>
        <mxCell id="32aNe6h-Z7KqoS8JLjo7-175" value="" style="endArrow=none;html=1;rounded=0;entryX=1;entryY=0.5;entryDx=0;entryDy=0;" edge="1" parent="32aNe6h-Z7KqoS8JLjo7-173" target="32aNe6h-Z7KqoS8JLjo7-174">
          <mxGeometry width="50" height="50" relative="1" as="geometry">
            <mxPoint x="80" y="40" as="sourcePoint" />
            <mxPoint x="320" y="60" as="targetPoint" />
          </mxGeometry>
        </mxCell>
        <mxCell id="32aNe6h-Z7KqoS8JLjo7-176" value="Dias de sol" style="text;html=1;align=center;verticalAlign=middle;whiteSpace=wrap;rounded=0;" vertex="1" parent="32aNe6h-Z7KqoS8JLjo7-173">
          <mxGeometry x="-13.333333333333334" width="93.33333333333333" height="30" as="geometry" />
        </mxCell>
        <mxCell id="32aNe6h-Z7KqoS8JLjo7-177" value="Eolicas" style="rounded=0;whiteSpace=wrap;html=1;" vertex="1" parent="1">
          <mxGeometry x="723.3299999999999" y="440" width="120" height="60" as="geometry" />
        </mxCell>
        <mxCell id="32aNe6h-Z7KqoS8JLjo7-178" value="" style="group" vertex="1" connectable="0" parent="1">
          <mxGeometry x="643.3299999999999" y="410" width="80" height="70" as="geometry" />
        </mxCell>
        <mxCell id="32aNe6h-Z7KqoS8JLjo7-179" value="" style="ellipse;whiteSpace=wrap;html=1;aspect=fixed;fillColor=light-dark(#FFFFFF,#030101);" vertex="1" parent="32aNe6h-Z7KqoS8JLjo7-178">
          <mxGeometry x="26.666666666666668" y="30" width="20" height="20" as="geometry" />
        </mxCell>
        <mxCell id="32aNe6h-Z7KqoS8JLjo7-180" value="" style="endArrow=none;html=1;rounded=0;entryX=1;entryY=0.5;entryDx=0;entryDy=0;" edge="1" parent="32aNe6h-Z7KqoS8JLjo7-178" target="32aNe6h-Z7KqoS8JLjo7-179">
          <mxGeometry width="50" height="50" relative="1" as="geometry">
            <mxPoint x="80" y="40" as="sourcePoint" />
            <mxPoint x="320" y="60" as="targetPoint" />
          </mxGeometry>
        </mxCell>
        <mxCell id="32aNe6h-Z7KqoS8JLjo7-181" value="Vel. media viento" style="text;html=1;align=center;verticalAlign=middle;whiteSpace=wrap;rounded=0;" vertex="1" parent="32aNe6h-Z7KqoS8JLjo7-178">
          <mxGeometry x="-23.33" width="120" height="30" as="geometry" />
        </mxCell>
        <mxCell id="32aNe6h-Z7KqoS8JLjo7-182" value="" style="ellipse;whiteSpace=wrap;html=1;aspect=fixed;fillColor=light-dark(#FFFFFF,#000000);" vertex="1" parent="1">
          <mxGeometry x="669.9966666666667" y="490" width="20" height="20" as="geometry" />
        </mxCell>
        <mxCell id="32aNe6h-Z7KqoS8JLjo7-183" value="" style="endArrow=none;html=1;rounded=0;entryX=1;entryY=0.5;entryDx=0;entryDy=0;" edge="1" parent="1" target="32aNe6h-Z7KqoS8JLjo7-182">
          <mxGeometry width="50" height="50" relative="1" as="geometry">
            <mxPoint x="723.3299999999999" y="500" as="sourcePoint" />
            <mxPoint x="963.3299999999999" y="520" as="targetPoint" />
          </mxGeometry>
        </mxCell>
        <mxCell id="32aNe6h-Z7KqoS8JLjo7-184" value="N. molinos" style="text;html=1;align=center;verticalAlign=middle;whiteSpace=wrap;rounded=0;" vertex="1" parent="1">
          <mxGeometry x="629.9966666666667" y="460" width="93.33333333333333" height="30" as="geometry" />
        </mxCell>
        <mxCell id="32aNe6h-Z7KqoS8JLjo7-185" value="" style="endArrow=none;html=1;rounded=0;entryX=0;entryY=0;entryDx=20.625;entryDy=20;entryPerimeter=0;exitX=0.5;exitY=0;exitDx=0;exitDy=0;" edge="1" parent="1" source="32aNe6h-Z7KqoS8JLjo7-177" target="32aNe6h-Z7KqoS8JLjo7-139">
          <mxGeometry width="50" height="50" relative="1" as="geometry">
            <mxPoint x="819" y="449" as="sourcePoint" />
            <mxPoint x="700" y="379" as="targetPoint" />
          </mxGeometry>
        </mxCell>
        <mxCell id="32aNe6h-Z7KqoS8JLjo7-186" value="&lt;h1 style=&quot;margin-top: 0px;&quot;&gt;Chavista dice&lt;/h1&gt;Te voy a mostrar los tipos de centrales energÃ©ticas que no tenemos en venezuela" style="text;html=1;whiteSpace=wrap;overflow=hidden;rounded=0;" vertex="1" parent="1">
          <mxGeometry x="160" y="190" width="180" height="120" as="geometry" />
        </mxCell>
        <mxCell id="32aNe6h-Z7KqoS8JLjo7-188" value="" style="endArrow=none;html=1;rounded=0;curved=1;" edge="1" parent="1">
          <mxGeometry width="50" height="50" relative="1" as="geometry">
            <mxPoint x="520" y="340" as="sourcePoint" />
            <mxPoint x="760" y="340" as="targetPoint" />
            <Array as="points">
              <mxPoint x="640" y="460" />
            </Array>
          </mxGeometry>
        </mxCell>
        <mxCell id="32aNe6h-Z7KqoS8JLjo7-189" value="&lt;i&gt;(0,1)&lt;/i&gt;" style="text;html=1;align=center;verticalAlign=middle;whiteSpace=wrap;rounded=0;" vertex="1" parent="1">
          <mxGeometry x="440" y="413" width="60" height="30" as="geometry" />
        </mxCell>
        <mxCell id="32aNe6h-Z7KqoS8JLjo7-190" value="&lt;i&gt;(0,1)&lt;/i&gt;" style="text;html=1;align=center;verticalAlign=middle;whiteSpace=wrap;rounded=0;" vertex="1" parent="1">
          <mxGeometry x="770" y="410" width="60" height="30" as="geometry" />
        </mxCell>
        <mxCell id="32aNe6h-Z7KqoS8JLjo7-191" value="&lt;i&gt;(1, 1)&lt;/i&gt;" style="text;html=1;align=center;verticalAlign=middle;whiteSpace=wrap;rounded=0;" vertex="1" parent="1">
          <mxGeometry x="643.33" y="280" width="60" height="30" as="geometry" />
        </mxCell>
        <mxCell id="32aNe6h-Z7KqoS8JLjo7-197" value="" style="group;fillColor=light-dark(transparent,#000000);" vertex="1" connectable="0" parent="1">
          <mxGeometry x="490" y="90" width="60" height="70" as="geometry" />
        </mxCell>
        <mxCell id="32aNe6h-Z7KqoS8JLjo7-198" value="" style="ellipse;whiteSpace=wrap;html=1;aspect=fixed;fillColor=light-dark(#FFFFFF,#000000);" vertex="1" parent="32aNe6h-Z7KqoS8JLjo7-197">
          <mxGeometry x="20" y="30" width="20" height="20" as="geometry" />
        </mxCell>
        <mxCell id="32aNe6h-Z7KqoS8JLjo7-199" value="" style="endArrow=none;html=1;rounded=0;entryX=0.5;entryY=1;entryDx=0;entryDy=0;" edge="1" parent="32aNe6h-Z7KqoS8JLjo7-197" target="32aNe6h-Z7KqoS8JLjo7-198">
          <mxGeometry width="50" height="50" relative="1" as="geometry">
            <mxPoint x="30" y="70" as="sourcePoint" />
            <mxPoint x="240" y="60" as="targetPoint" />
          </mxGeometry>
        </mxCell>
        <mxCell id="32aNe6h-Z7KqoS8JLjo7-200" value="Nombre" style="text;html=1;align=center;verticalAlign=middle;whiteSpace=wrap;rounded=0;" vertex="1" parent="32aNe6h-Z7KqoS8JLjo7-197">
          <mxGeometry width="60" height="30" as="geometry" />
        </mxCell>
        <mxCell id="32aNe6h-Z7KqoS8JLjo7-201" value="N. molinos" style="text;html=1;align=center;verticalAlign=middle;whiteSpace=wrap;rounded=0;" vertex="1" parent="1">
          <mxGeometry x="629.9966666666667" y="350" width="93.33333333333333" height="30" as="geometry" />
        </mxCell>
      </root>
    </mxGraphModel>
  </diagram>
</mxfile>
